<svg width="28" height="28" viewBox="0 0 28 28" fill="none" xmlns="http://www.w3.org/2000/svg">
<path fill-rule="evenodd" clip-rule="evenodd" d="M2.77055 3.72949C2.05644 3.72949 1.47754 4.30839 1.47754 5.02251V7.22034C1.47754 7.93445 2.05644 8.51335 2.77055 8.51335H25.2294C25.9436 8.51335 26.5225 7.93445 26.5225 7.22034V5.0225C26.5225 4.30839 25.9436 3.72949 25.2294 3.72949H2.77055ZM3.86919 5.13672C3.32524 5.13672 2.88428 5.57768 2.88428 6.12163C2.88428 6.66558 3.32524 7.10654 3.86919 7.10654C4.41314 7.10654 4.8541 6.66558 4.8541 6.12163C4.8541 5.57768 4.41314 5.13672 3.86919 5.13672ZM5.69824 6.12163C5.69824 5.57768 6.1392 5.13672 6.68316 5.13672C7.22711 5.13672 7.66807 5.57768 7.66807 6.12163C7.66807 6.66558 7.22711 7.10654 6.68316 7.10654C6.1392 7.10654 5.69824 6.66558 5.69824 6.12163ZM9.49712 5.13672C8.95317 5.13672 8.51221 5.57768 8.51221 6.12163C8.51221 6.66558 8.95317 7.10654 9.49712 7.10654C10.0411 7.10654 10.482 6.66558 10.482 6.12163C10.482 5.57768 10.0411 5.13672 9.49712 5.13672Z" fill="#5F69C5"/>
<rect x="22.9868" y="5.13672" width="1.96983" height="1.96983" rx="0.984913" fill="white"/>
<rect opacity="0.5" x="1.47754" y="9.91992" width="25.0449" height="14.3516" rx="1.29301" fill="#5F69C5"/>
<rect x="2.40723" y="10.7529" width="5.628" height="12.686" rx="1.14295" fill="#5F69C5"/>
<rect x="8.66846" y="10.7529" width="16.8397" height="12.686" rx="1.14295" fill="#5F69C5"/>
<rect opacity="0.25" x="10.0718" y="11.9902" width="14.0331" height="5.10502" rx="1.14295" fill="white"/>
<rect x="10.0718" y="18.1455" width="14.0331" height="3.64691" rx="1.14295" fill="white"/>
<rect opacity="0.25" x="7.38721" y="22.2363" width="4.33096" height="5.56842" rx="1.14295" transform="rotate(-180 7.38721 22.2363)" fill="white"/>
<rect x="7.38721" y="15.5234" width="4.33096" height="3.97795" rx="1.14295" transform="rotate(-180 7.38721 15.5234)" fill="white"/>
</svg>
