<svg width="24" height="20" viewBox="0 0 24 20" fill="none" xmlns="http://www.w3.org/2000/svg">
<path d="M22.2148 0.560913C22.9289 0.560937 23.5078 1.13981 23.5078 1.85388V3.66443C23.5077 4.37839 22.9288 4.95737 22.2148 4.9574H1.78516C1.07116 4.95737 0.492341 4.37839 0.492188 3.66443V1.85388C0.492211 1.13981 1.07108 0.560937 1.78516 0.560913H22.2148ZM2.69043 1.85388C2.19059 1.85388 1.78522 2.25933 1.78516 2.75916C1.78516 3.25903 2.19055 3.66443 2.69043 3.66443C3.19028 3.6644 3.5957 3.25902 3.5957 2.75916C3.59564 2.25935 3.19025 1.85391 2.69043 1.85388ZM5.27637 1.85388C4.77653 1.85388 4.37116 2.25933 4.37109 2.75916C4.37109 3.25903 4.77649 3.66443 5.27637 3.66443C5.77617 3.66434 6.18164 3.25898 6.18164 2.75916C6.18158 2.25939 5.77613 1.85397 5.27637 1.85388ZM7.8623 1.85388C7.36249 1.85391 6.95709 2.25935 6.95703 2.75916C6.95703 3.25901 7.36245 3.6644 7.8623 3.66443C8.36218 3.66443 8.76758 3.25903 8.76758 2.75916C8.76752 2.25933 8.36214 1.85388 7.8623 1.85388Z" fill="white"/>
<rect x="20.2588" y="1.85413" width="1.81022" height="1.81022" rx="0.905109" fill="#737DE3"/>
<rect opacity="0.5" x="0.492188" y="6.25024" width="23.0156" height="13.1887" rx="1.29301" fill="white"/>
<rect x="1.34668" y="7.01538" width="5.17198" height="11.6581" rx="1.14295" fill="#737DE3"/>
<rect x="7.10059" y="7.01538" width="15.4752" height="11.6581" rx="1.14295" fill="#737DE3"/>
<rect opacity="0.25" x="8.38965" y="8.15308" width="12.8961" height="4.69138" rx="1.14295" fill="white"/>
<rect x="8.38965" y="13.8085" width="12.8961" height="3.35141" rx="1.14295" fill="white"/>
<rect opacity="0.25" x="5.92285" y="17.5687" width="3.98004" height="5.11723" rx="1.14295" transform="rotate(-180 5.92285 17.5687)" fill="white"/>
<rect x="5.92285" y="11.3999" width="3.98004" height="3.65563" rx="1.14295" transform="rotate(-180 5.92285 11.3999)" fill="white"/>
</svg>
