<svg width="28" height="28" viewBox="0 0 28 28" fill="none" xmlns="http://www.w3.org/2000/svg">
<path d="M23.1033 14.5988L21.8229 16.8326C21.5565 17.3022 20.97 17.4833 20.4864 17.2438C19.9723 16.926 19.3742 16.6457 18.8414 17.1036C18.2772 17.537 17.658 17.8957 17.0003 18.1691C16.6241 18.3151 16.3659 18.6644 16.3367 19.0663L16.3086 19.6458C16.2619 20.1808 15.8168 20.5932 15.2806 20.5991H12.7197C12.1847 20.5979 11.7419 20.1808 11.7104 19.6458C11.701 19.0476 11.6356 18.4121 11.0094 18.1691C10.3482 17.898 9.72545 17.5394 9.15885 17.1036C8.85161 16.8431 8.42169 16.7847 8.05601 16.9541L7.5233 17.2438C7.03963 17.4845 6.45201 17.3034 6.18679 16.8326L4.89702 14.5988C4.62482 14.1432 4.76034 13.5532 5.20543 13.2623C5.67274 12.9726 6.28025 12.5987 6.15874 11.9632C6.04658 11.2132 6.04658 10.4515 6.15874 9.70145C6.28023 9.08461 5.66341 8.68274 5.20543 8.40233C4.76498 8.10792 4.63297 7.51913 4.90636 7.06582L6.18676 4.82275C6.46013 4.36128 7.0466 4.19305 7.52327 4.43957L8.05598 4.71061C9.06536 5.13117 9.96259 3.72928 11.0094 3.49562C11.6356 3.26196 11.701 2.58906 11.7103 2.00024C11.7407 1.46752 12.187 1.0551 12.7197 1.06563H15.2805C15.8156 1.05979 16.2631 1.46752 16.3086 2.00024L16.3367 2.59839C16.3717 2.99676 16.6287 3.34025 17.0002 3.48629C17.6638 3.75732 18.2865 4.11832 18.8508 4.5611C19.3648 4.99102 19.991 4.72933 20.4864 4.4396C20.963 4.19544 21.5483 4.3625 21.8229 4.82278L23.1033 7.06585C23.3708 7.52262 23.2353 8.10911 22.7949 8.40236C22.3369 8.69209 21.7388 9.07528 21.8509 9.70148C21.9677 10.4503 21.9677 11.2144 21.8509 11.9632C21.7294 12.5894 22.3462 12.9726 22.7949 13.2624C23.24 13.5533 23.3755 14.1432 23.1033 14.5988ZM18.5516 10.8042C18.5283 9.18731 17.6486 7.70366 16.2408 6.90692C14.833 6.11015 13.1086 6.12184 11.7104 6.93496C10.3132 7.74808 9.45214 9.24346 9.44864 10.8603C9.67645 16.8711 18.3973 16.8113 18.5516 10.8042Z" fill="#5F69C5"/>
<path opacity="0.5" d="M14.0131 13.4985C15.4828 13.4915 16.6721 12.3022 16.6814 10.8325C16.6861 10.1164 16.4034 9.42708 15.8964 8.92006C15.3893 8.41304 14.7012 8.13032 13.9851 8.13382C13.2678 8.13732 12.5832 8.42823 12.082 8.93992C11.5808 9.4528 11.3051 10.1444 11.3168 10.8606C11.3413 12.3302 12.5434 13.5067 14.0131 13.4985Z" fill="#5F69C5"/>
<g opacity="0.1">
<path d="M2.68207 23.9991C2.85497 22.9745 3.73584 22.2198 4.7756 22.2082L8.24315 22.208L4.07463 26.3765C3.0968 26.0249 2.51034 25.0237 2.68207 23.9991Z" fill="#5F69C5"/>
<path d="M6.5889 26.4981L10.8881 22.2082H14.7854L10.4954 26.4981H6.5889Z" fill="#5F69C5"/>
<path d="M13.1312 26.4981L17.4211 22.2082H21.3184L17.0192 26.4981H13.1312Z" fill="#5F69C5"/>
<path d="M19.6735 26.498L23.8698 22.311C24.8675 22.6381 25.4821 23.6393 25.3232 24.6779C25.1631 25.7164 24.2752 26.4863 23.225 26.498H19.6735Z" fill="#5F69C5"/>
</g>
</svg>
