<svg width="24" height="24" viewBox="0 0 24 24" fill="none" xmlns="http://www.w3.org/2000/svg">
<path fill-rule="evenodd" clip-rule="evenodd" d="M1.71867 22.2826C2.19696 22.7609 2.77222 23 3.44444 23H20.5556C21.2286 23.0008 21.8043 22.7617 22.2826 22.2826C22.7609 21.8034 23 21.2278 23 20.5556V3.44444C23.0008 2.77304 22.7617 2.19778 22.2826 1.71867C21.8034 1.23956 21.2278 1 20.5556 1H3.44444C2.77304 1.00081 2.19778 1.24037 1.71867 1.71867C1.23956 2.19696 1 2.77222 1 3.44444V20.5556C1.00081 21.2286 1.24037 21.8043 1.71867 22.2826ZM18.1111 18.1111H5.88889C5.64444 18.1111 5.46111 17.9991 5.33889 17.775C5.21667 17.5509 5.23704 17.337 5.4 17.1333L7.84444 13.8639C7.96667 13.7009 8.12963 13.6194 8.33333 13.6194C8.53704 13.6194 8.7 13.7009 8.82222 13.8639L11.0833 16.8889L14.2611 12.6417C14.3833 12.4787 14.5463 12.3972 14.75 12.3972C14.9537 12.3972 15.1167 12.4787 15.2389 12.6417L18.6 17.1333C18.763 17.337 18.7833 17.5509 18.6611 17.775C18.5389 17.9991 18.3556 18.1111 18.1111 18.1111ZM4.66777 4.21348C4.66777 4.63821 5.01208 4.98252 5.43681 4.98252H5.78263C6.33491 4.98252 6.78263 5.43024 6.78263 5.98252V9.53496C6.78263 10.0545 7.20379 10.4757 7.72333 10.4757C8.24286 10.4757 8.66403 10.0545 8.66403 9.53496V5.98252C8.66403 5.43024 9.11174 4.98252 9.66403 4.98252H10.0098C10.4346 4.98252 10.7789 4.63821 10.7789 4.21348C10.7789 3.78876 10.4346 3.44445 10.0098 3.44445H5.43681C5.01208 3.44445 4.66777 3.78876 4.66777 4.21348Z" fill="#5F69C5"/>
</svg>
