<svg width="24" height="24" viewBox="0 0 24 24" fill="none" xmlns="http://www.w3.org/2000/svg">
<path d="M3.44444 23C2.77222 23 2.19696 22.7609 1.71867 22.2826C1.24037 21.8043 1.00081 21.2286 1 20.5556V3.44444C1 2.77222 1.23956 2.19696 1.71867 1.71867C2.19778 1.24037 2.77304 1.00081 3.44444 1H20.5556C21.2278 1 21.8034 1.23956 22.2826 1.71867C22.7617 2.19778 23.0008 2.77304 23 3.44444V20.5556C23 21.2278 22.7609 21.8034 22.2826 22.2826C21.8043 22.7617 21.2286 23.0008 20.5556 23H3.44444Z" fill="#5F69C5"/>
<path d="M19.5315 9.64449C19.5315 10.0969 19.4435 10.4785 19.2676 10.7893C19.0917 11.0989 18.8542 11.3336 18.5553 11.4937C18.2564 11.6524 17.923 11.7318 17.5553 11.7318C17.1849 11.7318 16.8503 11.6518 16.5513 11.4917C16.2537 11.3303 16.0169 11.0949 15.841 10.7854C15.6664 10.4745 15.5791 10.0942 15.5791 9.64449C15.5791 9.19211 15.6664 8.81116 15.841 8.50163C16.0169 8.19079 16.2537 7.956 16.5513 7.79727C16.8503 7.63722 17.1849 7.55719 17.5553 7.55719C17.923 7.55719 18.2564 7.63722 18.5553 7.79727C18.8542 7.956 19.0917 8.19079 19.2676 8.50163C19.4435 8.81116 19.5315 9.19211 19.5315 9.64449ZM18.3966 9.64449C18.3966 9.40111 18.3642 9.19608 18.2993 9.02941C18.2358 8.86142 18.1413 8.73444 18.0156 8.64846C17.8913 8.56116 17.7378 8.51751 17.5553 8.51751C17.3728 8.51751 17.2187 8.56116 17.093 8.64846C16.9687 8.73444 16.8741 8.86142 16.8093 9.02941C16.7458 9.19608 16.714 9.40111 16.714 9.64449C16.714 9.88788 16.7458 10.0936 16.8093 10.2616C16.8741 10.4282 16.9687 10.5552 17.093 10.6425C17.2187 10.7285 17.3728 10.7715 17.5553 10.7715C17.7378 10.7715 17.8913 10.7285 18.0156 10.6425C18.1413 10.5552 18.2358 10.4282 18.2993 10.2616C18.3642 10.0936 18.3966 9.88788 18.3966 9.64449Z" fill="white"/>
<path d="M14.1411 8.95402C14.1239 8.88391 14.0968 8.8224 14.0597 8.76949C14.0227 8.71526 13.9764 8.66962 13.9209 8.63259C13.8666 8.59423 13.8031 8.56579 13.7304 8.54727C13.6589 8.52743 13.5802 8.51751 13.4943 8.51751C13.3091 8.51751 13.151 8.56182 13.0201 8.65044C12.8904 8.73907 12.7912 8.86671 12.7224 9.03338C12.655 9.20005 12.6212 9.40111 12.6212 9.63655C12.6212 9.87465 12.6537 10.0784 12.7185 10.2477C12.7833 10.417 12.8798 10.5466 13.0082 10.6366C13.1365 10.7265 13.2959 10.7715 13.4863 10.7715C13.6543 10.7715 13.7939 10.747 13.905 10.6981C14.0174 10.6491 14.1014 10.5797 14.157 10.4897C14.2125 10.3998 14.2403 10.294 14.2403 10.1723L14.4308 10.1921H13.5022V9.4064H15.3038V9.96989C15.3038 10.3403 15.2251 10.6571 15.0677 10.9203C14.9116 11.1822 14.696 11.3832 14.4209 11.5235C14.147 11.6623 13.8329 11.7318 13.4784 11.7318C13.0829 11.7318 12.7357 11.6478 12.4367 11.4798C12.1378 11.3118 11.9043 11.0724 11.7363 10.7616C11.5697 10.4507 11.4863 10.081 11.4863 9.65243C11.4863 9.31645 11.5373 9.01883 11.6391 8.75957C11.7423 8.50031 11.8851 8.2814 12.0677 8.10282C12.2502 7.92293 12.4612 7.78735 12.7006 7.69608C12.94 7.60349 13.1966 7.55719 13.4705 7.55719C13.7112 7.55719 13.9347 7.59158 14.1411 7.66036C14.3488 7.72782 14.532 7.82439 14.6907 7.95005C14.8507 8.07439 14.9797 8.22187 15.0776 8.39251C15.1755 8.56314 15.235 8.75031 15.2562 8.95402H14.1411Z" fill="white"/>
<path d="M11.2151 9.64449C11.2151 10.0969 11.1271 10.4785 10.9512 10.7893C10.7753 11.0989 10.5378 11.3336 10.2389 11.4937C9.93994 11.6524 9.60661 11.7318 9.23889 11.7318C8.86852 11.7318 8.53386 11.6518 8.23492 11.4917C7.9373 11.3303 7.70053 11.0949 7.5246 10.7854C7.35 10.4745 7.2627 10.0942 7.2627 9.64449C7.2627 9.19211 7.35 8.81116 7.5246 8.50163C7.70053 8.19079 7.9373 7.956 8.23492 7.79727C8.53386 7.63722 8.86852 7.55719 9.23889 7.55719C9.60661 7.55719 9.93994 7.63722 10.2389 7.79727C10.5378 7.956 10.7753 8.19079 10.9512 8.50163C11.1271 8.81116 11.2151 9.19211 11.2151 9.64449ZM10.0802 9.64449C10.0802 9.40111 10.0477 9.19608 9.98293 9.02941C9.91944 8.86142 9.82487 8.73444 9.6992 8.64846C9.57487 8.56116 9.42143 8.51751 9.23889 8.51751C9.05635 8.51751 8.90225 8.56116 8.77658 8.64846C8.65225 8.73444 8.55767 8.86142 8.49285 9.02941C8.42936 9.19608 8.39762 9.40111 8.39762 9.64449C8.39762 9.88788 8.42936 10.0936 8.49285 10.2616C8.55767 10.4282 8.65225 10.5552 8.77658 10.6425C8.90225 10.7285 9.05635 10.7715 9.23889 10.7715C9.42143 10.7715 9.57487 10.7285 9.6992 10.6425C9.82487 10.5552 9.91944 10.4282 9.98293 10.2616C10.0477 10.0936 10.0802 9.88788 10.0802 9.64449Z" fill="white"/>
<path d="M4.46875 11.6762V7.61267H5.57192V10.7873H7.21478V11.6762H4.46875Z" fill="white"/>
<path d="M15.6846 16.4428V12.3793H18.6131V13.2682H16.7877V13.9666H18.4623V14.8555H16.7877V15.5539H18.6052V16.4428H15.6846Z" fill="white"/>
<path d="M12.2402 16.4428V12.3793H13.9942C14.2958 12.3793 14.5597 12.4389 14.7859 12.5579C15.0121 12.677 15.188 12.8443 15.3136 13.0599C15.4393 13.2755 15.5021 13.5275 15.5021 13.8158C15.5021 14.1068 15.4373 14.3588 15.3077 14.5718C15.1794 14.7848 14.9988 14.9488 14.766 15.0639C14.5345 15.1789 14.264 15.2365 13.9545 15.2365H12.9069V14.3793H13.7323C13.8619 14.3793 13.9724 14.3568 14.0636 14.3119C14.1562 14.2656 14.227 14.2001 14.2759 14.1154C14.3262 14.0308 14.3513 13.9309 14.3513 13.8158C14.3513 13.6994 14.3262 13.6002 14.2759 13.5182C14.227 13.4349 14.1562 13.3714 14.0636 13.3277C13.9724 13.2828 13.8619 13.2603 13.7323 13.2603H13.3434V16.4428H12.2402Z" fill="white"/>
<path d="M8.02539 12.3793H9.25555L10.0492 14.0301H10.0809L10.8746 12.3793H12.1048L10.6127 15.165V16.4428H9.51745V15.165L8.02539 12.3793Z" fill="white"/>
<path d="M4.46875 13.2682V12.3793H8.0005V13.2682H6.77827V16.4428H5.69097V13.2682H4.46875Z" fill="white"/>
</svg>
