<svg width="22" height="18" viewBox="0 0 22 18" fill="none" xmlns="http://www.w3.org/2000/svg">
<path d="M4.48988 3.77606C4.48988 3.36932 4.73614 3.00262 5.11509 2.84667C5.49402 2.69177 5.92923 2.77712 6.21901 3.06479C6.50879 3.35246 6.59583 3.78556 6.43873 4.16173C6.2827 4.53686 5.91225 4.78239 5.50252 4.78239C4.94419 4.78133 4.49094 4.33138 4.48988 3.77606ZM10.9998 3.70862C10.9553 3.66437 10.8958 3.64013 10.8332 3.64013C10.7706 3.64013 10.7101 3.66437 10.6655 3.70862L5.98131 8.35141C5.72125 8.60114 5.30727 8.60114 5.04722 8.35141L3.09412 6.41569V6.41463C3.04954 6.37038 2.9901 6.34614 2.92747 6.34614C2.86484 6.34614 2.80434 6.37038 2.75976 6.41463L1.60671e-05 9.15429V10.0626C0.00213913 10.9151 0.698457 11.6063 1.55719 11.6074H13.9752C14.834 11.6063 15.5303 10.9151 15.5313 10.0626V8.21329L10.9998 3.70862ZM0 8.55589V2.04584C0.00212307 1.1923 0.69844 0.501052 1.55718 0.5H13.9752C14.8339 0.501054 15.5303 1.1923 15.5313 2.04584V7.61794L11.2855 3.40299C11.0275 3.14798 10.6104 3.14798 10.3514 3.40299L5.68079 8.05306C5.58844 8.14263 5.43983 8.14263 5.34747 8.05306L3.39438 6.11734C3.13538 5.86233 2.71822 5.86233 2.46029 6.11734L0 8.55589ZM4.06434 3.7793H4.0654C4.0654 4.35674 4.4157 4.87729 4.95278 5.09857C5.48989 5.31881 6.10872 5.19657 6.5195 4.78878C6.93134 4.37994 7.05449 3.76665 6.83156 3.23347C6.60865 2.69922 6.08429 2.3515 5.50261 2.3515C4.70969 2.3515 4.06644 2.98902 4.06538 3.77614L4.06434 3.7793ZM3.7682 15.89C3.76608 15.7741 3.67267 15.6814 3.55591 15.6793H2.13993C1.96797 15.6793 1.82893 15.5412 1.82893 15.3706V13.9659C1.82893 13.849 1.7334 13.7552 1.61663 13.7552C1.49987 13.7552 1.40434 13.849 1.40434 13.9659V15.3706C1.4054 15.7731 1.73444 16.0997 2.13993 16.1008H3.55591C3.67267 16.0997 3.76608 16.0059 3.7682 15.89ZM20.0267 3.7677V2.36308C20.0277 2.16919 19.9502 1.98267 19.8122 1.84568C19.6743 1.7087 19.4864 1.63177 19.2911 1.63283H17.8751C17.7583 1.63283 17.6628 1.72661 17.6628 1.84358C17.6628 1.95949 17.7583 2.05432 17.8751 2.05432H19.2911C19.463 2.05432 19.6021 2.19236 19.6021 2.36306V3.76768C19.6021 3.88465 19.6976 3.97843 19.8144 3.97843C19.9311 3.97843 20.0267 3.88466 20.0267 3.7677ZM19.1775 11.2419V13.0322C19.1775 14.1038 18.3028 14.971 17.2244 14.971H16.2765C16.3964 16.0226 17.0036 16.9573 17.9175 17.5H20.465C21.3079 17.4968 21.9904 16.8193 21.9936 15.9826V12.1332C21.3631 11.5378 20.5266 11.2059 19.6562 11.2059C19.4991 11.2091 19.3431 11.2228 19.1891 11.2449L19.1775 11.2419ZM15.8487 14.971H6.47061V15.9773C6.47273 16.815 7.15631 17.4936 7.99912 17.4947H17.187C16.4281 16.8582 15.9485 15.9531 15.8487 14.971ZM20.4715 6.38731H19.1892V10.8183C19.3453 10.7973 19.5034 10.7857 19.6616 10.7846C20.5086 10.7857 21.3313 11.066 22 11.5823V7.90469C21.9979 7.06696 21.3143 6.38836 20.4715 6.38731ZM17.2275 3.44534H15.9559V10.0627C15.9559 10.5843 15.7478 11.0849 15.3763 11.4537C15.0048 11.8225 14.5006 12.029 13.9752 12.029H3.23541V13.0322C3.23541 13.871 3.92005 14.5496 4.76392 14.5496H17.2276C17.6331 14.5496 18.0216 14.3904 18.3082 14.1059C18.5948 13.8214 18.7561 13.4347 18.7561 13.0322V4.96267C18.7561 4.56014 18.5948 4.17341 18.3082 3.8889C18.0216 3.60439 17.633 3.44534 17.2275 3.44534Z" fill="#5F69C5"/>
</svg>
