<svg width="20" height="20" viewBox="0 0 20 20" fill="none" xmlns="http://www.w3.org/2000/svg">
<path d="M1.00098 0C0.448692 0 0.000976562 0.447715 0.000976562 1V19.0002C0.000976562 19.5525 0.448692 20.0002 1.00098 20.0002H19.0012C19.5535 20.0002 20.0012 19.5525 20.0012 19.0002V1C20.0012 0.447716 19.5535 0 19.0012 0H1.00098ZM16.8222 15.8212C16.8222 16.3735 16.3745 16.8212 15.8222 16.8212H10.9485C10.402 16.8212 9.95897 16.3782 9.95897 15.8317C9.95897 15.2853 10.402 14.8422 10.9485 14.8422H11.0185C11.9094 14.8422 12.3555 13.7651 11.7256 13.1351L6.86603 8.27559C6.23606 7.64563 5.15892 8.09179 5.15892 8.9827V9.05272C5.15892 9.5992 4.71591 10.0422 4.16944 10.0422C3.62296 10.0422 3.17995 9.5992 3.17995 9.05272V4.17898C3.17995 3.62669 3.62767 3.17898 4.17996 3.17898H9.03264C9.57912 3.17898 10.0221 3.62199 10.0221 4.16846C10.0221 4.71494 9.57912 5.15794 9.03264 5.15794H8.98367C8.09277 5.15794 7.6466 6.23509 8.27657 6.86505L13.1361 11.7246C13.7661 12.3546 14.8432 11.9084 14.8432 11.0175V10.9475C14.8432 10.401 15.2862 9.95799 15.8327 9.95799C16.3792 9.95799 16.8222 10.401 16.8222 10.9475V15.8212Z" fill="#5F69C5"/>
</svg>
