<svg width="21" height="21" viewBox="0 0 21 21" fill="none" xmlns="http://www.w3.org/2000/svg">
<path fill-rule="evenodd" clip-rule="evenodd" d="M10.5 6.10352e-05C16.2988 6.10352e-05 21 4.70121 21 10.5001C21 16.2992 16.2988 21.0001 10.5 21.0001C4.70115 21.0001 0 16.2992 0 10.5001C0 4.70121 4.70115 6.10352e-05 10.5 6.10352e-05Z" fill="#5F69C5"/>
<path d="M13.4728 4.00006H7.52723C7.28982 4.00006 7.08525 4.08683 6.91728 4.25866L5.25247 5.96384C5.08472 6.13588 5 6.34541 5 6.58858V14.4115C5 14.6547 5.08472 14.8642 5.25247 15.0363L6.91728 16.7415C7.08525 16.9133 7.28982 17.0001 7.52723 17.0001H13.4728C13.7102 17.0001 13.9145 16.9133 14.0825 16.7415L15.7473 15.0363C15.9153 14.8642 16 14.6547 16 14.4115V12.524C16 12.2537 15.7846 12.033 15.5206 12.033H12.4635C12.1993 12.033 11.9841 12.2537 11.9841 12.524V13.4202L11.4572 13.9597H9.54261L9.01592 13.4202V7.57989L9.54261 7.04042H11.4572L11.9841 7.57989V8.47608C11.9841 8.74646 12.1993 8.96713 12.4635 8.96713H15.5206C15.7846 8.96713 16 8.74646 16 8.47608V6.58858C16 6.34541 15.9153 6.13588 15.7473 5.96384L14.0825 4.25866C13.9145 4.08683 13.7102 4.00006 13.4728 4.00006Z" fill="white"/>
</svg>
