<svg width="22" height="22" viewBox="0 0 22 22" fill="none" xmlns="http://www.w3.org/2000/svg">
<path d="M2.44444 22C1.77222 22 1.19696 21.7609 0.718667 21.2826C0.24037 20.8043 0.000814815 20.2286 0 19.5556V2.44444C0 1.77222 0.239556 1.19696 0.718667 0.718667C1.19778 0.24037 1.77304 0.000814815 2.44444 0H19.5556C20.2278 0 20.8034 0.239556 21.2826 0.718667C21.7617 1.19778 22.0008 1.77304 22 2.44444V19.5556C22 20.2278 21.7609 20.8034 21.2826 21.2826C20.8043 21.7617 20.2286 22.0008 19.5556 22H2.44444Z" fill="#5F69C5"/>
<path d="M5.19727 5.9361V3.72729H16.8024V5.9361H12.3066V18.2728H9.693V5.9361H5.19727Z" fill="white"/>
</svg>
