<svg width="24" height="24" viewBox="0 0 24 24" fill="none" xmlns="http://www.w3.org/2000/svg">
<path d="M12.0002 3.22201C12.3729 3.22201 12.6752 2.91976 12.6752 2.54701V1.50001C12.6752 1.12726 12.3729 0.825012 12.0002 0.825012C11.6274 0.825012 11.3252 1.12726 11.3252 1.50001V2.54701C11.3252 2.91976 11.6274 3.22201 12.0002 3.22201Z" fill="#5F69C5"/>
<path d="M12.0002 20.778C11.6274 20.778 11.3252 21.0803 11.3252 21.453V22.5C11.3252 22.8728 11.6274 23.175 12.0002 23.175C12.3729 23.175 12.6752 22.8728 12.6752 22.5V21.453C12.6752 21.0803 12.3729 20.778 12.0002 20.778Z" fill="#5F69C5"/>
<path d="M22.4993 11.325H21.4523C21.0796 11.325 20.7773 11.6273 20.7773 12C20.7773 12.3728 21.0796 12.675 21.4523 12.675H22.4993C22.8721 12.675 23.1743 12.3728 23.1743 12C23.1743 11.6273 22.8721 11.325 22.4993 11.325Z" fill="#5F69C5"/>
<path d="M2.5472 11.325H1.5002C1.12745 11.325 0.825195 11.6273 0.825195 12C0.825195 12.3728 1.12745 12.675 1.5002 12.675H2.5472C2.91995 12.675 3.2222 12.3728 3.2222 12C3.2222 11.6273 2.91995 11.325 2.5472 11.325Z" fill="#5F69C5"/>
<path d="M6.39516 7.34997C6.52716 7.48197 6.69966 7.54797 6.87216 7.54797C7.04466 7.54797 7.21791 7.48197 7.34991 7.34997C7.61391 7.08672 7.61391 6.65922 7.34991 6.39597L5.96841 5.01447C5.70441 4.75047 5.27766 4.75047 5.01441 5.01447C4.75041 5.27772 4.75041 5.70522 5.01441 5.96847L6.39516 7.34997Z" fill="#5F69C5"/>
<path d="M17.6048 16.6492C17.3408 16.3852 16.9141 16.3852 16.6508 16.6492C16.3876 16.9132 16.3868 17.3407 16.6508 17.604L18.0323 18.9855C18.1643 19.1175 18.3368 19.1835 18.5093 19.1835C18.6818 19.1835 18.8543 19.1175 18.9863 18.9855C19.2503 18.7215 19.2503 18.294 18.9863 18.0307L17.6048 16.6492Z" fill="#5F69C5"/>
<path d="M18.0316 5.01453L16.6501 6.39528C16.3861 6.65853 16.3861 7.08603 16.6501 7.34928C16.7821 7.48128 16.9546 7.54728 17.1271 7.54728C17.2996 7.54728 17.4721 7.48128 17.6041 7.34928L18.9856 5.96778C19.2496 5.70453 19.2496 5.27703 18.9856 5.01378C18.7224 4.75053 18.2956 4.75053 18.0316 5.01453Z" fill="#5F69C5"/>
<path d="M6.39591 16.6493L5.01441 18.0308C4.75041 18.2948 4.75041 18.7223 5.01441 18.9855C5.14641 19.1175 5.31891 19.1835 5.49141 19.1835C5.66391 19.1835 5.83641 19.1175 5.96841 18.9855L7.35066 17.6048C7.61466 17.3408 7.61466 16.9133 7.35066 16.65C7.08666 16.3868 6.65991 16.386 6.39591 16.6493Z" fill="#5F69C5"/>
<path d="M18.3331 12.309L16.1731 13.6013C15.1171 14.2335 14.2336 15.117 13.6014 16.173L12.3091 18.333C12.1696 18.5663 11.8306 18.5663 11.6911 18.333L10.3989 16.173C9.76662 15.117 8.88312 14.2335 7.82712 13.6013L5.66712 12.309C5.43387 12.1695 5.43387 11.8305 5.66712 11.691L7.82712 10.3988C8.88312 9.76653 9.76662 8.88303 10.3989 7.82703L11.6911 5.66703C11.8306 5.43378 12.1696 5.43378 12.3091 5.66703L13.6014 7.82703C14.2336 8.88303 15.1171 9.76653 16.1731 10.3988L18.3331 11.691C18.5671 11.8305 18.5671 12.1695 18.3331 12.309Z" fill="#5F69C5"/>
</svg>
