<svg width="24" height="24" viewBox="0 0 24 24" fill="none" xmlns="http://www.w3.org/2000/svg">
<path d="M7.91974 19.8983H6.1541C5.91733 19.8983 5.72555 20.0901 5.72555 20.3269C5.72555 20.5636 5.91733 20.7554 6.1541 20.7554H7.91974C8.15652 20.7554 8.3483 20.5636 8.3483 20.3269C8.3483 20.0901 8.15652 19.8983 7.91974 19.8983Z" fill="#5F69C5"/>
<path d="M11.4465 19.8983H9.68518C9.44841 19.8983 9.25663 20.0901 9.25663 20.3269C9.25663 20.5636 9.44841 20.7554 9.68518 20.7554H11.4465C11.6833 20.7554 11.8751 20.5636 11.8751 20.3269C11.8751 20.0901 11.6833 19.8983 11.4465 19.8983Z" fill="#5F69C5"/>
<path d="M14.9731 19.8983H13.2117C12.975 19.8983 12.7832 20.0901 12.7832 20.3269C12.7832 20.5636 12.975 20.7554 13.2117 20.7554H14.9731C15.2099 20.7554 15.4016 20.5636 15.4016 20.3269C15.4016 20.0901 15.2099 19.8983 14.9731 19.8983Z" fill="#5F69C5"/>
<path d="M18.5039 19.8983H16.7383C16.5015 19.8983 16.3097 20.0901 16.3097 20.3269C16.3097 20.5636 16.5015 20.7554 16.7383 20.7554H18.5039C18.7407 20.7554 18.9325 20.5636 18.9325 20.3269C18.9325 20.0901 18.7407 19.8983 18.5039 19.8983Z" fill="#5F69C5"/>
<path d="M20.3259 14.7428C20.4395 14.7428 20.5488 14.6978 20.6292 14.6174C20.7095 14.5371 20.7545 14.4278 20.7545 14.3142V12.5528C20.7545 12.3161 20.5627 12.1243 20.326 12.1243C20.0892 12.1243 19.8974 12.3161 19.8974 12.5528V14.3142C19.8974 14.4278 19.9424 14.537 20.0227 14.6174C20.1031 14.6978 20.2124 14.7428 20.3259 14.7428Z" fill="#5F69C5"/>
<path d="M20.3259 18.2741C20.4395 18.2741 20.5488 18.2291 20.6292 18.1487C20.7095 18.0684 20.7545 17.9591 20.7545 17.8455V16.0799C20.7545 15.8431 20.5627 15.6513 20.326 15.6513C20.0892 15.6513 19.8974 15.8431 19.8974 16.0799V17.8455C19.8974 17.9591 19.9424 18.0684 20.0227 18.1487C20.1031 18.2291 20.2124 18.2741 20.3259 18.2741Z" fill="#5F69C5"/>
<path d="M20.3259 7.68878C20.4395 7.68878 20.5488 7.64378 20.6292 7.56342C20.7095 7.48307 20.7545 7.37379 20.7545 7.26021V5.49458C20.7545 5.2578 20.5627 5.06602 20.326 5.06602C20.0892 5.06602 19.8974 5.2578 19.8974 5.49458V7.26021C19.8974 7.37378 19.9424 7.48306 20.0227 7.56342C20.1031 7.64378 20.2124 7.68878 20.3259 7.68878Z" fill="#5F69C5"/>
<path d="M20.3259 11.2159C20.4395 11.2159 20.5488 11.1709 20.6292 11.0905C20.7095 11.0102 20.7545 10.9009 20.7545 10.7873V9.02594C20.7545 8.78916 20.5627 8.59738 20.326 8.59738C20.0892 8.59738 19.8974 8.78916 19.8974 9.02594V10.7873C19.8974 10.9009 19.9424 11.0101 20.0227 11.0905C20.1031 11.1709 20.2124 11.2159 20.3259 11.2159Z" fill="#5F69C5"/>
<path d="M12.5531 4.10178H14.3144C14.5512 4.10178 14.743 3.91 14.743 3.67323C14.743 3.43645 14.5512 3.24468 14.3144 3.24468H12.5531C12.3163 3.24468 12.1245 3.43645 12.1245 3.67323C12.1245 3.91 12.3163 4.10178 12.5531 4.10178Z" fill="#5F69C5"/>
<path d="M9.02537 4.10178H10.7867C11.0235 4.10178 11.2153 3.91 11.2153 3.67323C11.2153 3.43645 11.0235 3.24468 10.7867 3.24468H9.02537C8.78859 3.24468 8.59682 3.43645 8.59682 3.67323C8.59682 3.91 8.78859 4.10178 9.02537 4.10178Z" fill="#5F69C5"/>
<path d="M7.68849 3.67338C7.68849 3.55981 7.64349 3.45053 7.56314 3.37017C7.48278 3.28981 7.3735 3.24482 7.25993 3.24482H5.49429C5.25752 3.24482 5.06574 3.43659 5.06574 3.67337C5.06574 3.91014 5.25752 4.10192 5.49429 4.10192H7.25993C7.3735 4.10192 7.48278 4.05693 7.56314 3.97657C7.64349 3.89622 7.68849 3.78695 7.68849 3.67338Z" fill="#5F69C5"/>
<path d="M16.0796 4.10178H17.8452C18.082 4.10178 18.2738 3.91 18.2738 3.67323C18.2738 3.43645 18.082 3.24468 17.8452 3.24468H16.0796C15.8428 3.24468 15.651 3.43645 15.651 3.67323C15.651 3.91 15.8428 4.10178 16.0796 4.10178Z" fill="#5F69C5"/>
<path d="M3.6733 5.72598C3.43652 5.72598 3.24474 5.91776 3.24474 6.15453V7.92018C3.24474 8.15695 3.43652 8.34873 3.6733 8.34873C3.91007 8.34873 4.10185 8.15695 4.10185 7.92018V6.15453C4.10185 6.04097 4.05685 5.93169 3.9765 5.85132C3.89614 5.77097 3.78687 5.72598 3.6733 5.72598Z" fill="#5F69C5"/>
<path d="M3.6733 9.25734C3.43652 9.25734 3.24474 9.44912 3.24474 9.68589V11.4473C3.24474 11.684 3.43652 11.8758 3.6733 11.8758C3.91007 11.8758 4.10185 11.684 4.10185 11.4473V9.68589C4.10185 9.57233 4.05685 9.46305 3.9765 9.38268C3.89614 9.30233 3.78687 9.25734 3.6733 9.25734Z" fill="#5F69C5"/>
<path d="M3.6733 16.3114C3.43652 16.3114 3.24474 16.5031 3.24474 16.7399V18.5056C3.24474 18.7423 3.43652 18.9341 3.6733 18.9341C3.91007 18.9341 4.10185 18.7423 4.10185 18.5056V16.7399C4.10185 16.6263 4.05685 16.5171 3.9765 16.4367C3.89614 16.3564 3.78687 16.3114 3.6733 16.3114Z" fill="#5F69C5"/>
<path d="M3.6733 12.7842C3.43652 12.7842 3.24474 12.976 3.24474 13.2128V14.9742C3.24474 15.2109 3.43652 15.4027 3.6733 15.4027C3.91007 15.4027 4.10185 15.2109 4.10185 14.9742V13.2128C4.10185 13.0992 4.05685 12.99 3.9765 12.9096C3.89614 12.8292 3.78687 12.7842 3.6733 12.7842Z" fill="#5F69C5"/>
<path d="M3.6728 0.000547807C3.43603 0.000547807 3.24425 0.192326 3.24425 0.429101V3.2448H0.428553C0.191778 3.2448 0 3.43657 0 3.67335C0 3.91012 0.191778 4.1019 0.428553 4.1019H3.67266C3.78623 4.1019 3.89551 4.0569 3.97587 3.97655C4.05623 3.8962 4.10122 3.78691 4.10122 3.67334V0.42923C4.10122 0.315664 4.05623 0.206382 3.97587 0.12602C3.89552 0.0456658 3.78637 0.000547807 3.6728 0.000547807Z" fill="#5F69C5"/>
<path d="M20.3261 4.10178H23.5702C23.807 4.10178 23.9988 3.91 23.9988 3.67323C23.9988 3.43645 23.807 3.24467 23.5702 3.24467H20.7545V0.42898C20.7545 0.192205 20.5627 0.000427246 20.326 0.000427246C20.0892 0.000427246 19.8974 0.192205 19.8974 0.42898V3.67309C19.8974 3.78666 19.9424 3.89594 20.0227 3.9763C20.1031 4.05665 20.2125 4.10178 20.3261 4.10178Z" fill="#5F69C5"/>
<path d="M3.67266 19.8983H0.428553C0.191778 19.8983 0 20.0901 0 20.3269C0 20.5636 0.191778 20.7554 0.428553 20.7554H3.24425V23.5711C3.24425 23.8079 3.43603 23.9997 3.6728 23.9997C3.90958 23.9997 4.10135 23.8079 4.10135 23.5711V20.327C4.10135 20.2134 4.05636 20.1042 3.976 20.0238C3.89565 19.9434 3.78624 19.8983 3.67266 19.8983Z" fill="#5F69C5"/>
<path d="M23.5712 19.8982H20.3271C20.0903 19.8982 19.8985 20.09 19.8985 20.3267V23.571C19.8985 23.8077 20.0903 23.9995 20.3271 23.9995C20.5639 23.9995 20.7556 23.8077 20.7556 23.571V20.7552H23.5713C23.8081 20.7552 23.9999 20.5634 23.9999 20.3266C23.9999 20.0898 23.808 19.8982 23.5712 19.8982Z" fill="#5F69C5"/>
<path d="M7.70051 13.8098C8.41639 14.5294 9.37463 14.9589 10.3882 15.0154L10.1068 14.0107L9.6346 12.2474C9.43114 11.4612 9.65846 10.626 10.2324 10.0509C10.8064 9.47689 11.6416 9.24708 12.4277 9.44928L14.7587 10.0722C14.598 9.2584 14.1986 8.50986 13.6133 7.9221C9.56933 4.11414 3.9179 9.76593 7.70051 13.8098Z" fill="#5F69C5"/>
<path d="M17.3918 13.2773C17.5525 12.9496 17.5563 12.5665 17.4006 12.2362C17.2461 11.9059 16.9485 11.6635 16.593 11.5794L12.1723 10.3938C11.7302 10.2757 11.2605 10.4026 10.9365 10.7253C10.6137 11.0494 10.4869 11.5191 10.6049 11.9612L11.7905 16.387C11.9073 16.8341 12.2577 17.182 12.7048 17.2963C13.3491 17.437 13.9871 17.0338 14.1365 16.3921C14.5133 14.9302 15.2618 14.1415 16.5227 13.9104C16.8957 13.8463 17.2172 13.6127 17.3918 13.2773Z" fill="#5F69C5"/>
</svg>
