<svg width="20" height="20" viewBox="0 0 20 20" fill="none" xmlns="http://www.w3.org/2000/svg">
<path fill-rule="evenodd" clip-rule="evenodd" d="M13.3906 14.9596C8.7047 15.1386 4.86099 11.2948 5.04077 6.60978C0.157207 8.0237 -1.47741 14.2086 2.1575 17.8426C5.80266 21.4878 11.9807 19.8267 13.3904 14.9594L13.3906 14.9596ZM6.60993 5.03996C8.02386 0.156394 14.2088 -1.47735 17.8428 2.15669C21.4768 5.79072 19.8422 11.9757 14.9587 13.3896C15.1393 8.70454 11.2956 4.86083 6.60972 5.03974L6.60993 5.03996ZM6.42073 7.93763L6.36618 6.36605C8.10568 6.22286 9.8776 6.75467 11.2718 7.93763H6.42073ZM13.5797 12.0617L13.6334 13.6333C11.8939 13.7765 10.122 13.2447 8.7278 12.0617H13.5797ZM7.53869 10.7526C7.20972 10.2787 6.94978 9.7725 6.75631 9.24666H12.4613C12.7903 9.72053 13.0502 10.2268 13.2437 10.7526H7.53869Z" fill="#5F69C5"/>
</svg>
