<svg width="20" height="22" viewBox="0 0 20 22" fill="none" xmlns="http://www.w3.org/2000/svg">
<path d="M18.8235 0H4.70588C4.05906 0 3.52941 0.49522 3.52941 1.1V3.3H1.76471C0.793882 3.3 0 4.04228 0 4.95V8.25C0 9.15772 0.793882 9.9 1.76471 9.9H3.52941V20.9C3.52941 21.5048 4.05906 22 4.70588 22H18.8235C19.4704 22 20 21.5048 20 20.9V1.1C20 0.49522 19.4704 0 18.8235 0ZM1.17647 8.25V4.95C1.17647 4.64706 1.44072 4.4 1.76471 4.4H10C10.324 4.4 10.5882 4.64707 10.5882 4.95V8.25C10.5882 8.55294 10.324 8.8 10 8.8H1.76471C1.44071 8.8 1.17647 8.55293 1.17647 8.25ZM14.7059 18.7H7.64706C7.32306 18.7 7.05882 18.4529 7.05882 18.15C7.05882 17.8471 7.32307 17.6 7.64706 17.6H14.7059C15.0299 17.6 15.2941 17.8471 15.2941 18.15C15.2941 18.4529 15.0299 18.7 14.7059 18.7ZM15.8824 16.5H7.64706C7.32306 16.5 7.05882 16.2529 7.05882 15.95C7.05882 15.6471 7.32307 15.4 7.64706 15.4H15.8824C16.2064 15.4 16.4706 15.6471 16.4706 15.95C16.4706 16.2529 16.2063 16.5 15.8824 16.5ZM15.8824 14.3H8.82353C8.49953 14.3 8.23529 14.0529 8.23529 13.75C8.23529 13.4471 8.49954 13.2 8.82353 13.2H15.8824C16.2064 13.2 16.4706 13.4471 16.4706 13.75C16.4706 14.0529 16.2063 14.3 15.8824 14.3Z" fill="#5F69C5"/>
</svg>
