<svg width="1548" height="327" viewBox="0 0 1548 327" fill="none" xmlns="http://www.w3.org/2000/svg">
<path opacity="0.2" d="M317 327L317 181.332C317 172.312 309.688 165 300.668 165L206 165" stroke="white" stroke-width="0.816595"/>
<circle opacity="0.2" cx="199.254" cy="165.41" r="4.08297" fill="white"/>
<rect x="39" y="149" width="139.638" height="74.3463" rx="8.16595" fill="#737DE3"/>
<path d="M53.5917 171.107V170.477H57.3471V171.107H55.8331V175.329H55.1033V171.107H53.5917ZM58.1201 175.329V171.69H58.8285V175.329H58.1201ZM58.4779 171.128C58.3547 171.128 58.2488 171.087 58.1604 171.005C58.0735 170.921 58.03 170.822 58.03 170.706C58.03 170.59 58.0735 170.49 58.1604 170.408C58.2488 170.324 58.3547 170.282 58.4779 170.282C58.6011 170.282 58.7061 170.324 58.793 170.408C58.8814 170.49 58.9257 170.59 58.9257 170.706C58.9257 170.822 58.8814 170.921 58.793 171.005C58.7061 171.087 58.6011 171.128 58.4779 171.128ZM60.49 170.477V175.329H59.7816V170.477H60.49ZM63.0116 175.403C62.6531 175.403 62.3443 175.326 62.0852 175.173C61.8277 175.018 61.6287 174.801 61.4881 174.521C61.3491 174.24 61.2796 173.911 61.2796 173.533C61.2796 173.16 61.3491 172.832 61.4881 172.547C61.6287 172.263 61.8246 172.041 62.0757 171.882C62.3285 171.722 62.6238 171.642 62.9619 171.642C63.1672 171.642 63.3662 171.676 63.5589 171.744C63.7517 171.812 63.9246 171.919 64.0778 172.064C64.2311 172.209 64.3519 172.398 64.4403 172.63C64.5288 172.861 64.573 173.141 64.573 173.472V173.723H61.68V173.192H63.8788C63.8788 173.006 63.8409 172.84 63.7651 172.697C63.6893 172.551 63.5826 172.437 63.4452 172.353C63.3094 172.269 63.1498 172.228 62.9666 172.228C62.7676 172.228 62.5938 172.277 62.4453 172.375C62.2984 172.471 62.1847 172.597 62.1042 172.754C62.0252 172.908 61.9857 173.077 61.9857 173.258V173.673C61.9857 173.916 62.0283 174.123 62.1136 174.294C62.2005 174.464 62.3213 174.595 62.4761 174.685C62.6309 174.773 62.8118 174.817 63.0187 174.817C63.153 174.817 63.2754 174.798 63.386 174.76C63.4966 174.721 63.5921 174.663 63.6727 174.585C63.7532 174.508 63.8148 174.412 63.8575 174.298L64.528 174.419C64.4743 174.617 64.378 174.79 64.2389 174.938C64.1015 175.085 63.9286 175.2 63.7201 175.282C63.5131 175.362 63.277 175.403 63.0116 175.403Z" fill="white"/>
<path d="M87.6113 163.536H161.481C162.929 163.536 164.102 164.71 164.103 166.157V179.502C164.102 180.949 162.929 182.123 161.481 182.123H87.6113C86.1639 182.123 84.9905 180.949 84.9902 179.502V166.157C84.9903 164.71 86.1638 163.536 87.6113 163.536Z" stroke="#ACB4FF" stroke-width="0.476579"/>
<path d="M96.9403 171.555H96.2011C96.1727 171.397 96.1197 171.258 96.0423 171.138C95.9649 171.018 95.8702 170.916 95.758 170.832C95.6459 170.748 95.5203 170.685 95.3813 170.642C95.2439 170.6 95.0978 170.578 94.943 170.578C94.6634 170.578 94.413 170.649 94.1919 170.789C93.9723 170.93 93.7986 171.136 93.6706 171.408C93.5443 171.679 93.4811 172.011 93.4811 172.403C93.4811 172.798 93.5443 173.131 93.6706 173.403C93.7986 173.674 93.9731 173.88 94.1942 174.019C94.4154 174.158 94.6642 174.227 94.9406 174.227C95.0938 174.227 95.2391 174.207 95.3766 174.166C95.5156 174.123 95.6411 174.061 95.7533 173.979C95.8654 173.896 95.9602 173.796 96.0376 173.678C96.1166 173.558 96.1711 173.42 96.2011 173.265L96.9403 173.268C96.9008 173.506 96.8242 173.726 96.7105 173.926C96.5984 174.125 96.4538 174.298 96.2769 174.443C96.1016 174.587 95.901 174.698 95.6751 174.777C95.4492 174.856 95.2028 174.895 94.9359 174.895C94.5157 174.895 94.1413 174.796 93.8128 174.597C93.4842 174.396 93.2252 174.11 93.0356 173.737C92.8477 173.364 92.7537 172.919 92.7537 172.403C92.7537 171.885 92.8485 171.44 93.038 171.069C93.2276 170.696 93.4866 170.41 93.8152 170.211C94.1437 170.011 94.5173 169.91 94.9359 169.91C95.1933 169.91 95.4334 169.947 95.6561 170.022C95.8804 170.094 96.0818 170.202 96.2603 170.344C96.4388 170.484 96.5865 170.657 96.7034 170.86C96.8203 171.063 96.8993 171.294 96.9403 171.555ZM97.7595 174.829V171.19H98.4443V171.768H98.4822C98.5485 171.572 98.6654 171.418 98.8329 171.306C99.0019 171.192 99.193 171.135 99.4062 171.135C99.4505 171.135 99.5026 171.137 99.5626 171.14C99.6242 171.143 99.6724 171.147 99.7072 171.152V171.829C99.6787 171.822 99.6282 171.813 99.5555 171.803C99.4829 171.792 99.4102 171.787 99.3375 171.787C99.1701 171.787 99.0208 171.822 98.8897 171.893C98.7602 171.963 98.6575 172.06 98.5817 172.185C98.5059 172.308 98.468 172.449 98.468 172.607V174.829H97.7595ZM101.723 174.903C101.382 174.903 101.084 174.824 100.83 174.668C100.575 174.512 100.378 174.293 100.237 174.012C100.097 173.731 100.026 173.402 100.026 173.026C100.026 172.649 100.097 172.318 100.237 172.036C100.378 171.753 100.575 171.533 100.83 171.377C101.084 171.221 101.382 171.142 101.723 171.142C102.064 171.142 102.362 171.221 102.616 171.377C102.87 171.533 103.068 171.753 103.208 172.036C103.349 172.318 103.419 172.649 103.419 173.026C103.419 173.402 103.349 173.731 103.208 174.012C103.068 174.293 102.87 174.512 102.616 174.668C102.362 174.824 102.064 174.903 101.723 174.903ZM101.725 174.308C101.946 174.308 102.13 174.249 102.275 174.133C102.42 174.016 102.528 173.86 102.597 173.666C102.668 173.471 102.704 173.257 102.704 173.024C102.704 172.791 102.668 172.578 102.597 172.384C102.528 172.188 102.42 172.031 102.275 171.912C102.13 171.794 101.946 171.735 101.725 171.735C101.503 171.735 101.318 171.794 101.171 171.912C101.025 172.031 100.917 172.188 100.846 172.384C100.777 172.578 100.742 172.791 100.742 173.024C100.742 173.257 100.777 173.471 100.846 173.666C100.917 173.86 101.025 174.016 101.171 174.133C101.318 174.249 101.503 174.308 101.725 174.308ZM104.21 176.194V171.19H104.902V171.78H104.961C105.002 171.704 105.062 171.616 105.139 171.517C105.216 171.417 105.324 171.33 105.461 171.256C105.599 171.18 105.78 171.142 106.006 171.142C106.3 171.142 106.562 171.217 106.793 171.365C107.023 171.514 107.204 171.728 107.335 172.007C107.468 172.287 107.534 172.623 107.534 173.017C107.534 173.41 107.469 173.747 107.338 174.028C107.207 174.308 107.026 174.523 106.797 174.675C106.568 174.825 106.307 174.9 106.013 174.9C105.792 174.9 105.611 174.863 105.471 174.789C105.332 174.715 105.223 174.628 105.144 174.528C105.065 174.429 105.004 174.34 104.961 174.263H104.919V176.194H104.21ZM104.904 173.009C104.904 173.265 104.941 173.49 105.016 173.682C105.09 173.875 105.197 174.026 105.338 174.135C105.479 174.242 105.651 174.296 105.854 174.296C106.066 174.296 106.243 174.24 106.385 174.128C106.527 174.014 106.635 173.86 106.707 173.666C106.782 173.471 106.819 173.253 106.819 173.009C106.819 172.769 106.782 172.554 106.71 172.363C106.639 172.171 106.531 172.021 106.388 171.91C106.245 171.799 106.068 171.744 105.854 171.744C105.649 171.744 105.475 171.797 105.333 171.903C105.193 172.009 105.086 172.156 105.013 172.346C104.941 172.536 104.904 172.757 104.904 173.009Z" fill="white"/>
<path d="M114.414 173.783L116.003 175.372L117.591 173.783M114.414 171.877L116.003 170.288L117.591 171.877" stroke="white" stroke-width="0.476579" stroke-linecap="round" stroke-linejoin="round"/>
<path d="M53.831 202.017V197.164H56.8732V197.794H54.5631V199.273H56.7145V199.901H54.5631V201.386H56.9016V202.017H53.831ZM59.5263 198.377V198.946H57.4697V198.377H59.5263ZM58.0336 202.017V197.956C58.0336 197.728 58.0834 197.539 58.1829 197.389C58.2824 197.238 58.4143 197.125 58.5786 197.05C58.7428 196.975 58.9213 196.937 59.114 196.937C59.2562 196.937 59.3778 196.949 59.4789 196.972C59.58 196.994 59.655 197.015 59.704 197.034L59.5381 197.607C59.505 197.598 59.4623 197.587 59.4102 197.574C59.3581 197.56 59.2949 197.553 59.2207 197.553C59.0485 197.553 58.9253 197.595 58.851 197.681C58.7784 197.766 58.742 197.889 58.742 198.05V202.017H58.0336ZM61.9892 198.377V198.946H59.9326V198.377H61.9892ZM60.4965 202.017V197.956C60.4965 197.728 60.5463 197.539 60.6458 197.389C60.7453 197.238 60.8772 197.125 61.0415 197.05C61.2058 196.975 61.3843 196.937 61.577 196.937C61.7191 196.937 61.8408 196.949 61.9419 196.972C62.0429 196.994 62.118 197.015 62.1669 197.034L62.0011 197.607C61.9679 197.598 61.9253 197.587 61.8731 197.574C61.821 197.56 61.7578 197.553 61.6836 197.553C61.5114 197.553 61.3882 197.595 61.314 197.681C61.2413 197.766 61.205 197.889 61.205 198.05V202.017H60.4965ZM64.1454 202.09C63.7868 202.09 63.478 202.013 63.2189 201.86C62.9615 201.705 62.7624 201.488 62.6219 201.209C62.4829 200.927 62.4134 200.598 62.4134 200.221C62.4134 199.848 62.4829 199.519 62.6219 199.235C62.7624 198.951 62.9583 198.729 63.2095 198.569C63.4622 198.41 63.7576 198.33 64.0956 198.33C64.3009 198.33 64.5 198.364 64.6927 198.432C64.8854 198.5 65.0584 198.606 65.2116 198.752C65.3648 198.897 65.4856 199.086 65.5741 199.318C65.6625 199.549 65.7068 199.829 65.7068 200.159V200.41H62.8138V199.879H65.0125C65.0125 199.693 64.9746 199.528 64.8988 199.384C64.823 199.239 64.7164 199.124 64.579 199.041C64.4431 198.957 64.2836 198.915 64.1003 198.915C63.9013 198.915 63.7276 198.964 63.5791 199.062C63.4322 199.158 63.3185 199.285 63.2379 199.441C63.1589 199.596 63.1194 199.764 63.1194 199.946V200.36C63.1194 200.604 63.1621 200.811 63.2474 200.981C63.3342 201.152 63.4551 201.282 63.6099 201.372C63.7647 201.461 63.9455 201.505 64.1525 201.505C64.2867 201.505 64.4091 201.486 64.5197 201.448C64.6303 201.408 64.7259 201.35 64.8064 201.273C64.887 201.195 64.9486 201.1 64.9912 200.986L65.6617 201.107C65.608 201.304 65.5117 201.477 65.3727 201.626C65.2353 201.773 65.0623 201.887 64.8538 201.969C64.6469 202.05 64.4107 202.09 64.1454 202.09ZM68.0258 202.09C67.6735 202.09 67.3703 202.01 67.1159 201.851C66.8632 201.69 66.6689 201.468 66.5331 201.185C66.3972 200.902 66.3293 200.578 66.3293 200.214C66.3293 199.844 66.3988 199.518 66.5378 199.235C66.6768 198.951 66.8727 198.729 67.1254 198.569C67.3781 198.41 67.6759 198.33 68.0187 198.33C68.2951 198.33 68.5415 198.381 68.7579 198.484C68.9743 198.585 69.1488 198.727 69.2815 198.91C69.4158 199.094 69.4956 199.308 69.5208 199.552H68.8314C68.7934 199.382 68.7066 199.235 68.5707 199.112C68.4365 198.989 68.2564 198.927 68.0305 198.927C67.8331 198.927 67.6601 198.979 67.5116 199.083C67.3647 199.186 67.2502 199.333 67.1681 199.524C67.0859 199.714 67.0449 199.938 67.0449 200.197C67.0449 200.462 67.0851 200.691 67.1657 200.884C67.2463 201.077 67.36 201.226 67.5069 201.332C67.6554 201.438 67.8299 201.491 68.0305 201.491C68.1648 201.491 68.2864 201.466 68.3954 201.417C68.506 201.367 68.5984 201.295 68.6726 201.202C68.7484 201.108 68.8013 200.996 68.8314 200.865H69.5208C69.4956 201.1 69.419 201.311 69.291 201.495C69.1631 201.68 68.9917 201.825 68.7769 201.931C68.5636 202.037 68.3133 202.09 68.0258 202.09ZM71.9773 198.377V198.946H69.9894V198.377H71.9773ZM70.5225 197.505H71.2309V200.948C71.2309 201.085 71.2515 201.189 71.2925 201.258C71.3336 201.326 71.3865 201.373 71.4513 201.398C71.5176 201.422 71.5895 201.434 71.6669 201.434C71.7237 201.434 71.7735 201.43 71.8161 201.422C71.8588 201.414 71.892 201.408 71.9157 201.403L72.0436 201.988C72.0025 202.004 71.9441 202.02 71.8683 202.036C71.7925 202.053 71.6977 202.062 71.584 202.064C71.3976 202.067 71.2238 202.034 71.0627 201.964C70.9016 201.895 70.7713 201.788 70.6718 201.642C70.5722 201.497 70.5225 201.314 70.5225 201.095V197.505Z" fill="white"/>
<path d="M87.6113 190.224H161.481C162.929 190.224 164.102 191.397 164.103 192.845V206.189C164.102 207.637 162.929 208.81 161.481 208.811H87.6113C86.1639 208.81 84.9905 207.637 84.9902 206.189V192.845C84.9903 191.397 86.1638 190.224 87.6113 190.224Z" stroke="#ACB4FF" stroke-width="0.476579"/>
<path d="M97.1251 199.09C97.1251 199.608 97.0304 200.054 96.8408 200.427C96.6513 200.798 96.3914 201.084 96.0613 201.284C95.7328 201.483 95.3592 201.583 94.9406 201.583C94.5204 201.583 94.1453 201.483 93.8152 201.284C93.4866 201.084 93.2276 200.797 93.038 200.424C92.8485 200.052 92.7537 199.607 92.7537 199.09C92.7537 198.572 92.8485 198.128 93.038 197.756C93.2276 197.384 93.4866 197.098 93.8152 196.899C94.1453 196.698 94.5204 196.598 94.9406 196.598C95.3592 196.598 95.7328 196.698 96.0613 196.899C96.3914 197.098 96.6513 197.384 96.8408 197.756C97.0304 198.128 97.1251 198.572 97.1251 199.09ZM96.4001 199.09C96.4001 198.695 96.3361 198.363 96.2082 198.093C96.0818 197.821 95.9081 197.616 95.6869 197.477C95.4674 197.336 95.2186 197.266 94.9406 197.266C94.661 197.266 94.4114 197.336 94.1919 197.477C93.9723 197.616 93.7986 197.821 93.6706 198.093C93.5443 198.363 93.4811 198.695 93.4811 199.09C93.4811 199.485 93.5443 199.819 93.6706 200.09C93.7986 200.36 93.9723 200.566 94.1919 200.706C94.4114 200.845 94.661 200.915 94.9406 200.915C95.2186 200.915 95.4674 200.845 95.6869 200.706C95.9081 200.566 96.0818 200.36 96.2082 200.09C96.3361 199.819 96.4001 199.485 96.4001 199.09ZM101.094 197.877L99.7747 201.517H99.0165L97.6944 197.877H98.4549L99.3766 200.678H99.4145L100.334 197.877H101.094ZM103.205 201.59C102.846 201.59 102.538 201.513 102.278 201.36C102.021 201.205 101.822 200.988 101.681 200.709C101.542 200.427 101.473 200.098 101.473 199.721C101.473 199.348 101.542 199.019 101.681 198.735C101.822 198.451 102.018 198.229 102.269 198.069C102.522 197.91 102.817 197.83 103.155 197.83C103.361 197.83 103.56 197.864 103.752 197.932C103.945 198 104.118 198.106 104.271 198.252C104.424 198.397 104.545 198.586 104.634 198.818C104.722 199.049 104.766 199.329 104.766 199.659V199.91H101.873V199.379H104.072C104.072 199.193 104.034 199.028 103.958 198.884C103.883 198.739 103.776 198.624 103.639 198.541C103.503 198.457 103.343 198.415 103.16 198.415C102.961 198.415 102.787 198.464 102.639 198.562C102.492 198.658 102.378 198.785 102.297 198.941C102.218 199.096 102.179 199.264 102.179 199.446V199.86C102.179 200.104 102.222 200.311 102.307 200.481C102.394 200.652 102.515 200.782 102.669 200.872C102.824 200.961 103.005 201.005 103.212 201.005C103.346 201.005 103.469 200.986 103.579 200.948C103.69 200.908 103.785 200.85 103.866 200.773C103.947 200.695 104.008 200.6 104.051 200.486L104.721 200.607C104.668 200.804 104.571 200.977 104.432 201.126C104.295 201.273 104.122 201.387 103.913 201.469C103.706 201.55 103.47 201.59 103.205 201.59ZM105.552 201.517V197.877H106.237V198.455H106.275C106.341 198.26 106.458 198.106 106.626 197.993C106.795 197.88 106.986 197.823 107.199 197.823C107.243 197.823 107.295 197.824 107.355 197.828C107.417 197.831 107.465 197.835 107.5 197.839V198.517C107.472 198.509 107.421 198.5 107.348 198.491C107.276 198.48 107.203 198.474 107.13 198.474C106.963 198.474 106.814 198.51 106.683 198.581C106.553 198.65 106.45 198.748 106.375 198.872C106.299 198.996 106.261 199.136 106.261 199.294V201.517H105.552ZM108.821 196.664V201.517H108.113V196.664H108.821ZM110.834 201.597C110.603 201.597 110.395 201.555 110.208 201.469C110.022 201.382 109.874 201.257 109.765 201.092C109.658 200.928 109.604 200.727 109.604 200.488C109.604 200.283 109.643 200.114 109.722 199.981C109.801 199.849 109.908 199.744 110.042 199.666C110.177 199.589 110.327 199.53 110.492 199.491C110.658 199.451 110.827 199.421 111 199.401C111.217 199.375 111.394 199.355 111.53 199.339C111.666 199.322 111.765 199.294 111.826 199.256C111.888 199.218 111.919 199.157 111.919 199.071V199.055C111.919 198.848 111.86 198.688 111.743 198.574C111.628 198.46 111.456 198.403 111.227 198.403C110.988 198.403 110.8 198.456 110.663 198.562C110.527 198.666 110.433 198.782 110.381 198.91L109.715 198.759C109.794 198.538 109.91 198.359 110.061 198.223C110.214 198.086 110.391 197.986 110.59 197.925C110.789 197.861 110.998 197.83 111.217 197.83C111.363 197.83 111.517 197.847 111.68 197.882C111.844 197.915 111.997 197.977 112.139 198.067C112.283 198.157 112.401 198.286 112.492 198.453C112.584 198.619 112.63 198.834 112.63 199.1V201.517H111.938V201.019H111.909C111.864 201.111 111.795 201.201 111.703 201.289C111.612 201.378 111.494 201.451 111.35 201.509C111.206 201.568 111.034 201.597 110.834 201.597ZM110.988 201.029C111.184 201.029 111.351 200.99 111.49 200.912C111.631 200.835 111.737 200.734 111.81 200.609C111.884 200.483 111.921 200.348 111.921 200.204V199.735C111.896 199.76 111.847 199.784 111.774 199.806C111.703 199.826 111.622 199.845 111.53 199.86C111.439 199.875 111.349 199.888 111.263 199.901C111.176 199.912 111.103 199.921 111.045 199.929C110.907 199.947 110.782 199.976 110.668 200.017C110.556 200.058 110.466 200.117 110.398 200.195C110.331 200.27 110.298 200.371 110.298 200.498C110.298 200.673 110.363 200.806 110.492 200.896C110.622 200.984 110.787 201.029 110.988 201.029ZM113.891 202.881C113.785 202.881 113.689 202.873 113.602 202.855C113.515 202.839 113.45 202.822 113.407 202.803L113.578 202.223C113.707 202.257 113.823 202.272 113.924 202.268C114.025 202.263 114.114 202.225 114.192 202.154C114.271 202.083 114.34 201.967 114.4 201.806L114.488 201.564L113.156 197.877H113.914L114.836 200.702H114.874L115.796 197.877H116.556L115.056 202.002C114.987 202.192 114.898 202.352 114.791 202.483C114.684 202.616 114.556 202.715 114.407 202.782C114.259 202.848 114.087 202.881 113.891 202.881Z" fill="white"/>
<path d="M123.414 200.47L125.003 202.059L126.591 200.47M123.414 198.564L125.003 196.976L126.591 198.564" stroke="white" stroke-width="0.476579" stroke-linecap="round" stroke-linejoin="round"/>
<path opacity="0.2" d="M353 327L353 71C353 59.9543 344.046 51 333 51L211 51" stroke="white"/>
<circle opacity="0.2" cx="203" cy="51" r="5" fill="white"/>
<rect width="178" height="107" rx="10" fill="white"/>
<path d="M16.7565 20.0359C16.7332 19.8288 16.6369 19.6682 16.4676 19.5544C16.2984 19.4392 16.0853 19.3815 15.8285 19.3815C15.6447 19.3815 15.4856 19.4107 15.3514 19.4691C15.2172 19.526 15.1128 19.6048 15.0384 19.7055C14.9655 19.8047 14.929 19.9178 14.929 20.0447C14.929 20.1512 14.9538 20.2431 15.0034 20.3205C15.0545 20.3978 15.1209 20.4627 15.2026 20.5153C15.2857 20.5663 15.3747 20.6094 15.4696 20.6444C15.5644 20.678 15.6556 20.7057 15.7432 20.7276L16.1809 20.8414C16.3239 20.8764 16.4705 20.9238 16.6208 20.9836C16.7711 21.0435 16.9105 21.1222 17.0389 21.22C17.1673 21.3178 17.2709 21.4389 17.3496 21.5833C17.4299 21.7278 17.47 21.9007 17.47 22.102C17.47 22.3559 17.4044 22.5814 17.273 22.7783C17.1432 22.9753 16.9542 23.1307 16.7062 23.2445C16.4596 23.3583 16.1612 23.4152 15.811 23.4152C15.4754 23.4152 15.1851 23.362 14.9399 23.2555C14.6948 23.1489 14.5029 22.9979 14.3643 22.8024C14.2257 22.6054 14.1491 22.372 14.1345 22.102H14.813C14.8261 22.264 14.8786 22.399 14.9706 22.5069C15.064 22.6135 15.1829 22.693 15.3273 22.7455C15.4732 22.7966 15.633 22.8221 15.8066 22.8221C15.9978 22.8221 16.1678 22.7922 16.3166 22.7324C16.4669 22.6711 16.5851 22.5865 16.6712 22.4785C16.7572 22.3691 16.8003 22.2414 16.8003 22.0955C16.8003 21.9627 16.7624 21.854 16.6865 21.7694C16.6121 21.6847 16.5107 21.6147 16.3823 21.5593C16.2553 21.5038 16.1116 21.4549 15.9511 21.4126L15.4214 21.2682C15.0625 21.1704 14.778 21.0267 14.5679 20.837C14.3592 20.6473 14.2549 20.3963 14.2549 20.0841C14.2549 19.8258 14.3249 19.6004 14.465 19.4078C14.6051 19.2152 14.7947 19.0656 15.034 18.9591C15.2733 18.8511 15.5433 18.7972 15.8438 18.7972C16.1473 18.7972 16.4151 18.8504 16.6471 18.9569C16.8805 19.0634 17.0644 19.2101 17.1986 19.3969C17.3329 19.5822 17.4029 19.7952 17.4087 20.0359H16.7565ZM18.2257 23.3408V19.979H18.8801V23.3408H18.2257ZM18.5561 19.4603C18.4423 19.4603 18.3446 19.4224 18.2629 19.3465C18.1826 19.2692 18.1425 19.1773 18.1425 19.0707C18.1425 18.9628 18.1826 18.8708 18.2629 18.795C18.3446 18.7176 18.4423 18.679 18.5561 18.679C18.67 18.679 18.767 18.7176 18.8472 18.795C18.9289 18.8708 18.9698 18.9628 18.9698 19.0707C18.9698 19.1773 18.9289 19.2692 18.8472 19.3465C18.767 19.4224 18.67 19.4603 18.5561 19.4603ZM19.6904 23.3408V22.8921L21.5114 20.5787V20.5481H19.7495V19.979H22.3278V20.4562L20.5768 22.7411V22.7718H22.389V23.3408H19.6904ZM24.5137 23.4087C24.1825 23.4087 23.8972 23.3379 23.6579 23.1964C23.4201 23.0534 23.2362 22.8527 23.1064 22.5945C22.978 22.3348 22.9138 22.0305 22.9138 21.6818C22.9138 21.3375 22.978 21.034 23.1064 20.7713C23.2362 20.5087 23.4172 20.3037 23.6492 20.1563C23.8826 20.009 24.1555 19.9353 24.4677 19.9353C24.6574 19.9353 24.8412 19.9666 25.0193 20.0294C25.1973 20.0921 25.357 20.1906 25.4986 20.3248C25.6401 20.4591 25.7517 20.6334 25.8334 20.8479C25.9151 21.061 25.956 21.32 25.956 21.6249V21.8569H23.2836V21.3666H25.3147C25.3147 21.1945 25.2797 21.042 25.2097 20.9092C25.1396 20.775 25.0411 20.6692 24.9142 20.5919C24.7887 20.5145 24.6413 20.4759 24.4721 20.4759C24.2882 20.4759 24.1277 20.5211 23.9906 20.6116C23.8549 20.7006 23.7498 20.8173 23.6754 20.9617C23.6025 21.1047 23.566 21.2601 23.566 21.4279V21.8109C23.566 22.0356 23.6054 22.2268 23.6842 22.3844C23.7644 22.542 23.876 22.6623 24.019 22.7455C24.162 22.8272 24.3291 22.8681 24.5202 22.8681C24.6443 22.8681 24.7573 22.8506 24.8595 22.8155C24.9616 22.7791 25.0499 22.7251 25.1243 22.6536C25.1987 22.5821 25.2556 22.4938 25.295 22.3888L25.9144 22.5004C25.8648 22.6828 25.7758 22.8425 25.6474 22.9797C25.5205 23.1154 25.3607 23.2212 25.1681 23.297C24.9769 23.3715 24.7588 23.4087 24.5137 23.4087Z" fill="#09090B"/>
<path d="M153.108 24.4021C152.778 24.4021 152.497 24.3124 152.265 24.1329C152.033 23.952 151.856 23.6901 151.733 23.3472C151.611 23.0028 151.549 22.587 151.549 22.0996C151.549 21.6152 151.611 21.2016 151.733 20.8587C151.857 20.5143 152.035 20.2517 152.267 20.0707C152.501 19.8884 152.781 19.7972 153.108 19.7972C153.435 19.7972 153.714 19.8884 153.946 20.0707C154.179 20.2517 154.357 20.5143 154.48 20.8587C154.604 21.2016 154.666 21.6152 154.666 22.0996C154.666 22.587 154.605 23.0028 154.482 23.3472C154.36 23.6901 154.182 23.952 153.95 24.1329C153.718 24.3124 153.437 24.4021 153.108 24.4021ZM153.108 23.9206C153.435 23.9206 153.688 23.763 153.869 23.4478C154.05 23.1327 154.141 22.6833 154.141 22.0996C154.141 21.7115 154.099 21.381 154.016 21.1082C153.934 20.8353 153.816 20.6274 153.661 20.4844C153.508 20.3414 153.324 20.2699 153.108 20.2699C152.784 20.2699 152.531 20.4297 152.348 20.7492C152.166 21.0673 152.075 21.5174 152.075 22.0996C152.075 22.4878 152.115 22.8175 152.197 23.0889C152.279 23.3603 152.396 23.5668 152.55 23.7083C152.704 23.8498 152.89 23.9206 153.108 23.9206ZM155.726 24.3758C155.618 24.3758 155.526 24.3372 155.448 24.2598C155.371 24.1825 155.332 24.0899 155.332 23.9819C155.332 23.8739 155.371 23.7813 155.448 23.7039C155.526 23.6266 155.618 23.5879 155.726 23.5879C155.834 23.5879 155.927 23.6266 156.004 23.7039C156.082 23.7813 156.12 23.8739 156.12 23.9819C156.12 24.0534 156.102 24.119 156.066 24.1789C156.031 24.2387 155.983 24.2868 155.923 24.3233C155.865 24.3583 155.799 24.3758 155.726 24.3758ZM158.349 24.4021C158.092 24.4021 157.861 24.351 157.655 24.2489C157.449 24.1468 157.285 24.0067 157.161 23.8287C157.036 23.6507 156.969 23.4478 156.957 23.2202H157.482C157.503 23.423 157.595 23.5908 157.758 23.7236C157.923 23.8549 158.12 23.9206 158.349 23.9206C158.533 23.9206 158.696 23.8776 158.839 23.7915C158.984 23.7054 159.097 23.5872 159.178 23.4369C159.262 23.2852 159.303 23.1137 159.303 22.9226C159.303 22.727 159.26 22.5527 159.174 22.3995C159.089 22.2448 158.973 22.123 158.824 22.034C158.675 21.945 158.505 21.8997 158.314 21.8983C158.177 21.8968 158.036 21.918 157.892 21.9617C157.747 22.0041 157.628 22.0588 157.535 22.1259L157.027 22.0646L157.298 19.8584H159.627V20.3399H157.754L157.596 21.6619H157.622C157.714 21.5889 157.83 21.5284 157.968 21.4802C158.107 21.4321 158.251 21.408 158.401 21.408C158.676 21.408 158.92 21.4737 159.135 21.605C159.351 21.7349 159.52 21.9129 159.642 22.139C159.766 22.3652 159.828 22.6235 159.828 22.9138C159.828 23.1998 159.764 23.4551 159.636 23.6798C159.509 23.9031 159.334 24.0796 159.111 24.2095C158.887 24.3379 158.633 24.4021 158.349 24.4021ZM162.186 24.4021C162.002 24.3992 161.819 24.3642 161.635 24.297C161.451 24.2299 161.283 24.1168 161.131 23.9578C160.98 23.7973 160.858 23.5806 160.766 23.3078C160.674 23.0335 160.628 22.6891 160.628 22.2747C160.628 21.8778 160.665 21.5262 160.74 21.2198C160.814 20.9119 160.922 20.6529 161.063 20.4428C161.205 20.2312 161.376 20.0707 161.576 19.9613C161.777 19.8519 162.004 19.7972 162.256 19.7972C162.507 19.7972 162.73 19.8475 162.926 19.9482C163.123 20.0474 163.283 20.186 163.407 20.364C163.532 20.542 163.612 20.747 163.648 20.979H163.114C163.065 20.7777 162.968 20.6106 162.825 20.4778C162.682 20.3451 162.493 20.2787 162.256 20.2787C161.909 20.2787 161.635 20.4297 161.436 20.7317C161.237 21.0338 161.137 21.4576 161.136 22.0033H161.171C161.252 21.8793 161.349 21.7735 161.462 21.686C161.576 21.597 161.701 21.5284 161.838 21.4802C161.975 21.4321 162.121 21.408 162.274 21.408C162.531 21.408 162.765 21.4722 162.979 21.6006C163.192 21.7276 163.362 21.9034 163.491 22.1281C163.619 22.3513 163.683 22.6074 163.683 22.8963C163.683 23.1735 163.621 23.4274 163.497 23.658C163.373 23.887 163.199 24.0694 162.974 24.2051C162.751 24.3394 162.488 24.405 162.186 24.4021ZM162.186 23.9206C162.37 23.9206 162.535 23.8746 162.681 23.7827C162.828 23.6908 162.944 23.5675 163.029 23.4128C163.115 23.2582 163.158 23.086 163.158 22.8963C163.158 22.711 163.116 22.5425 163.033 22.3907C162.952 22.2375 162.838 22.1157 162.694 22.0252C162.551 21.9348 162.388 21.8895 162.204 21.8895C162.065 21.8895 161.936 21.9172 161.816 21.9727C161.697 22.0267 161.592 22.1011 161.501 22.1959C161.412 22.2908 161.342 22.3995 161.291 22.522C161.24 22.6431 161.214 22.7708 161.214 22.9051C161.214 23.0831 161.256 23.2494 161.339 23.4041C161.424 23.5587 161.539 23.6835 161.685 23.7783C161.832 23.8732 161.999 23.9206 162.186 23.9206Z" fill="#71717A"/>
<g clip-path="url(#clip0_156_12719)">
<path d="M13.8193 34.7055C13.8193 33.9761 14.4106 33.3848 15.14 33.3848H162.861C163.59 33.3848 164.182 33.9761 164.182 34.7055C164.182 35.4349 163.59 36.0262 162.861 36.0262H15.14C14.4106 36.0262 13.8193 35.4349 13.8193 34.7055Z" fill="#18181B" fill-opacity="0.2"/>
<rect x="-26.6816" y="33.3848" width="88.0466" height="2.6414" rx="1.3207" fill="#18181B"/>
</g>
<circle cx="61.8041" cy="34.7055" r="3.52187" fill="white"/>
<circle cx="61.8041" cy="34.7055" r="3.30175" stroke="#18181B" stroke-opacity="0.5" stroke-width="0.440233"/>
<path d="M14.0907 48.6916V48.1094H17.5598V48.6916H16.1612V52.5918H15.4871V48.6916H14.0907ZM17.9247 52.5918V49.23H18.5572V49.764H18.5923C18.6535 49.5831 18.7615 49.4409 18.9162 49.3373C19.0723 49.2322 19.2489 49.1797 19.4458 49.1797C19.4867 49.1797 19.5348 49.1811 19.5903 49.1841C19.6472 49.187 19.6917 49.1906 19.7238 49.195V49.821C19.6975 49.8137 19.6508 49.8056 19.5837 49.7969C19.5166 49.7867 19.4495 49.7816 19.3824 49.7816C19.2277 49.7816 19.0898 49.8144 18.9687 49.88C18.8491 49.9442 18.7542 50.034 18.6842 50.1493C18.6141 50.2631 18.5791 50.3929 18.5791 50.5388V52.5918H17.9247ZM21.2383 52.6662C21.0253 52.6662 20.8327 52.6268 20.6605 52.548C20.4884 52.4678 20.3519 52.3518 20.2513 52.2C20.152 52.0483 20.1024 51.8622 20.1024 51.6419C20.1024 51.4522 20.1389 51.2961 20.2119 51.1735C20.2848 51.051 20.3833 50.9539 20.5073 50.8825C20.6314 50.811 20.77 50.757 20.9232 50.7205C21.0764 50.684 21.2325 50.6563 21.3916 50.6373C21.5929 50.614 21.7563 50.595 21.8818 50.5804C22.0073 50.5644 22.0985 50.5388 22.1554 50.5038C22.2123 50.4688 22.2408 50.4119 22.2408 50.3331V50.3178C22.2408 50.1266 22.1868 49.9785 22.0788 49.8735C21.9723 49.7684 21.8132 49.7159 21.6017 49.7159C21.3813 49.7159 21.2077 49.7648 21.0808 49.8625C20.9553 49.9588 20.8685 50.0661 20.8203 50.1843L20.2053 50.0442C20.2783 49.8399 20.3848 49.675 20.5248 49.5496C20.6664 49.4226 20.8291 49.3307 21.0129 49.2738C21.1968 49.2154 21.3901 49.1862 21.5929 49.1862C21.7271 49.1862 21.8694 49.2023 22.0197 49.2344C22.1714 49.265 22.313 49.3219 22.4443 49.4051C22.5771 49.4883 22.6858 49.6072 22.7704 49.7619C22.855 49.9151 22.8973 50.1142 22.8973 50.3594V52.5918H22.2583V52.1322H22.232C22.1897 52.2168 22.1262 52.3 22.0416 52.3817C21.957 52.4634 21.8483 52.5312 21.7155 52.5852C21.5827 52.6392 21.4237 52.6662 21.2383 52.6662ZM21.3806 52.1409C21.5615 52.1409 21.7162 52.1052 21.8446 52.0337C21.9745 51.9622 22.073 51.8688 22.1401 51.7535C22.2087 51.6368 22.2429 51.5121 22.2429 51.3793V50.9459C22.2196 50.9693 22.1744 50.9912 22.1072 51.0116C22.0416 51.0306 21.9664 51.0473 21.8818 51.0619C21.7972 51.0751 21.7147 51.0875 21.6345 51.0991C21.5542 51.1093 21.4871 51.1181 21.4331 51.1254C21.3062 51.1414 21.1902 51.1684 21.0851 51.2064C20.9815 51.2443 20.8984 51.299 20.8356 51.3705C20.7743 51.4406 20.7437 51.5339 20.7437 51.6507C20.7437 51.8126 20.8035 51.9352 20.9232 52.0184C21.0428 52.1001 21.1953 52.1409 21.3806 52.1409ZM24.4234 50.5957V52.5918H23.769V49.23H24.3971V49.7772H24.4387C24.516 49.5992 24.6372 49.4562 24.802 49.3482C24.9684 49.2402 25.1778 49.1862 25.4302 49.1862C25.6593 49.1862 25.8599 49.2344 26.0321 49.3307C26.2042 49.4255 26.3377 49.5671 26.4326 49.7553C26.5274 49.9435 26.5748 50.1762 26.5748 50.4535V52.5918H25.9204V50.5323C25.9204 50.2886 25.857 50.0982 25.73 49.961C25.6031 49.8224 25.4287 49.7531 25.2069 49.7531C25.0552 49.7531 24.9202 49.7859 24.802 49.8516C24.6853 49.9173 24.5926 50.0136 24.5241 50.1405C24.457 50.266 24.4234 50.4177 24.4234 50.5957ZM29.9716 50.0508L29.3785 50.1558C29.3537 50.0799 29.3143 50.0077 29.2603 49.9391C29.2078 49.8706 29.1363 49.8144 29.0458 49.7706C28.9554 49.7268 28.8423 49.705 28.7066 49.705C28.5213 49.705 28.3666 49.7465 28.2426 49.8297C28.1186 49.9114 28.0566 50.0172 28.0566 50.1471C28.0566 50.2594 28.0982 50.3499 28.1813 50.4185C28.2645 50.487 28.3987 50.5432 28.584 50.587L29.1181 50.7095C29.4274 50.781 29.6579 50.8912 29.8097 51.04C29.9614 51.1889 30.0373 51.3822 30.0373 51.62C30.0373 51.8214 29.9789 52.0009 29.8622 52.1584C29.7469 52.3146 29.5857 52.4371 29.3785 52.5261C29.1728 52.6151 28.9342 52.6596 28.6628 52.6596C28.2864 52.6596 27.9792 52.5794 27.7414 52.4189C27.5036 52.2569 27.3577 52.0271 27.3037 51.7295L27.9362 51.6332C27.9756 51.798 28.0566 51.9228 28.1791 52.0074C28.3017 52.0906 28.4615 52.1322 28.6584 52.1322C28.8729 52.1322 29.0444 52.0877 29.1728 51.9987C29.3012 51.9082 29.3654 51.798 29.3654 51.6682C29.3654 51.5631 29.326 51.4749 29.2472 51.4034C29.1699 51.3319 29.0509 51.2779 28.8904 51.2414L28.3214 51.1166C28.0077 51.0451 27.7757 50.9313 27.6254 50.7752C27.4766 50.6191 27.4022 50.4214 27.4022 50.1821C27.4022 49.9836 27.4576 49.81 27.5685 49.6612C27.6794 49.5124 27.8326 49.3964 28.0281 49.3132C28.2236 49.2286 28.4476 49.1862 28.7 49.1862C29.0634 49.1862 29.3493 49.265 29.558 49.4226C29.7666 49.5787 29.9045 49.7881 29.9716 50.0508ZM30.7568 53.8525V49.23H31.3959V49.775H31.4506C31.4886 49.705 31.5433 49.624 31.6148 49.5321C31.6863 49.4401 31.7855 49.3599 31.9124 49.2913C32.0394 49.2213 32.2072 49.1862 32.4158 49.1862C32.6872 49.1862 32.9294 49.2548 33.1425 49.392C33.3555 49.5291 33.5226 49.7268 33.6437 49.9851C33.7662 50.2434 33.8275 50.5542 33.8275 50.9175C33.8275 51.2808 33.767 51.5923 33.6459 51.852C33.5248 52.1103 33.3584 52.3095 33.1468 52.4495C32.9353 52.5881 32.6938 52.6575 32.4224 52.6575C32.2181 52.6575 32.0511 52.6232 31.9212 52.5546C31.7928 52.486 31.6921 52.4058 31.6192 52.3138C31.5462 52.2219 31.49 52.1402 31.4506 52.0687H31.4112V53.8525H30.7568ZM31.3981 50.9109C31.3981 51.1473 31.4324 51.3545 31.501 51.5325C31.5695 51.7105 31.6688 51.8498 31.7986 51.9505C31.9285 52.0497 32.0875 52.0993 32.2758 52.0993C32.4713 52.0993 32.6347 52.0476 32.766 51.944C32.8973 51.8389 32.9966 51.6966 33.0637 51.5172C33.1323 51.3377 33.1665 51.1356 33.1665 50.9109C33.1665 50.6891 33.133 50.49 33.0659 50.3134C33.0002 50.1368 32.901 49.9975 32.7682 49.8954C32.6369 49.7932 32.4727 49.7422 32.2758 49.7422C32.0861 49.7422 31.9256 49.791 31.7943 49.8888C31.6644 49.9866 31.5659 50.123 31.4988 50.2981C31.4317 50.4732 31.3981 50.6774 31.3981 50.9109ZM35.539 52.6662C35.326 52.6662 35.1334 52.6268 34.9612 52.548C34.7891 52.4678 34.6526 52.3518 34.552 52.2C34.4527 52.0483 34.4031 51.8622 34.4031 51.6419C34.4031 51.4522 34.4396 51.2961 34.5126 51.1735C34.5855 51.051 34.684 50.9539 34.808 50.8825C34.9321 50.811 35.0707 50.757 35.2239 50.7205C35.3771 50.684 35.5332 50.6563 35.6923 50.6373C35.8936 50.614 36.057 50.595 36.1825 50.5804C36.308 50.5644 36.3992 50.5388 36.4561 50.5038C36.513 50.4688 36.5415 50.4119 36.5415 50.3331V50.3178C36.5415 50.1266 36.4875 49.9785 36.3795 49.8735C36.273 49.7684 36.1139 49.7159 35.9024 49.7159C35.682 49.7159 35.5084 49.7648 35.3815 49.8625C35.256 49.9588 35.1692 50.0661 35.121 50.1843L34.506 50.0442C34.579 49.8399 34.6855 49.675 34.8255 49.5496C34.9671 49.4226 35.1298 49.3307 35.3136 49.2738C35.4975 49.2154 35.6908 49.1862 35.8936 49.1862C36.0279 49.1862 36.1701 49.2023 36.3204 49.2344C36.4721 49.265 36.6137 49.3219 36.745 49.4051C36.8778 49.4883 36.9865 49.6072 37.0711 49.7619C37.1557 49.9151 37.1981 50.1142 37.1981 50.3594V52.5918H36.559V52.1322H36.5327C36.4904 52.2168 36.4269 52.3 36.3423 52.3817C36.2577 52.4634 36.149 52.5312 36.0162 52.5852C35.8834 52.6392 35.7244 52.6662 35.539 52.6662ZM35.6813 52.1409C35.8622 52.1409 36.0169 52.1052 36.1453 52.0337C36.2752 51.9622 36.3737 51.8688 36.4408 51.7535C36.5094 51.6368 36.5436 51.5121 36.5436 51.3793V50.9459C36.5203 50.9693 36.4751 50.9912 36.4079 51.0116C36.3423 51.0306 36.2671 51.0473 36.1825 51.0619C36.0979 51.0751 36.0154 51.0875 35.9352 51.0991C35.8549 51.1093 35.7878 51.1181 35.7338 51.1254C35.6069 51.1414 35.4909 51.1684 35.3858 51.2064C35.2822 51.2443 35.1991 51.299 35.1363 51.3705C35.0751 51.4406 35.0444 51.5339 35.0444 51.6507C35.0444 51.8126 35.1042 51.9352 35.2239 52.0184C35.3435 52.1001 35.496 52.1409 35.6813 52.1409ZM38.0697 52.5918V49.23H38.7022V49.764H38.7372C38.7985 49.5831 38.9065 49.4409 39.0612 49.3373C39.2173 49.2322 39.3938 49.1797 39.5908 49.1797C39.6317 49.1797 39.6798 49.1811 39.7353 49.1841C39.7922 49.187 39.8367 49.1906 39.8688 49.195V49.821C39.8425 49.8137 39.7958 49.8056 39.7287 49.7969C39.6616 49.7867 39.5945 49.7816 39.5273 49.7816C39.3727 49.7816 39.2348 49.8144 39.1137 49.88C38.994 49.9442 38.8992 50.034 38.8292 50.1493C38.7591 50.2631 38.7241 50.3929 38.7241 50.5388V52.5918H38.0697ZM41.7636 52.6596C41.4324 52.6596 41.1471 52.5889 40.9078 52.4473C40.67 52.3044 40.4862 52.1037 40.3563 51.8455C40.2279 51.5857 40.1637 51.2815 40.1637 50.9328C40.1637 50.5884 40.2279 50.2849 40.3563 50.0223C40.4862 49.7597 40.6671 49.5547 40.8991 49.4073C41.1325 49.2599 41.4054 49.1862 41.7176 49.1862C41.9073 49.1862 42.0912 49.2176 42.2692 49.2804C42.4472 49.3431 42.607 49.4416 42.7485 49.5758C42.89 49.7101 43.0017 49.8844 43.0834 50.0989C43.1651 50.3119 43.2059 50.5709 43.2059 50.8759V51.1079H40.5336V50.6176H42.5646C42.5646 50.4455 42.5296 50.293 42.4596 50.1602C42.3896 50.026 42.2911 49.9202 42.1641 49.8428C42.0386 49.7655 41.8913 49.7268 41.722 49.7268C41.5382 49.7268 41.3777 49.7721 41.2405 49.8625C41.1048 49.9515 40.9998 50.0683 40.9253 50.2127C40.8524 50.3557 40.8159 50.5111 40.8159 50.6789V51.0619C40.8159 51.2866 40.8553 51.4778 40.9341 51.6354C41.0143 51.7929 41.126 51.9133 41.269 51.9965C41.412 52.0782 41.579 52.119 41.7702 52.119C41.8942 52.119 42.0073 52.1015 42.1094 52.0665C42.2115 52.03 42.2998 51.9761 42.3742 51.9046C42.4486 51.8331 42.5056 51.7448 42.5449 51.6397L43.1643 51.7514C43.1147 51.9337 43.0257 52.0935 42.8973 52.2307C42.7704 52.3664 42.6106 52.4722 42.418 52.548C42.2269 52.6224 42.0087 52.6596 41.7636 52.6596ZM44.5864 50.5957V52.5918H43.932V49.23H44.5602V49.7772H44.6017C44.6791 49.5992 44.8002 49.4562 44.9651 49.3482C45.1314 49.2402 45.3408 49.1862 45.5932 49.1862C45.8223 49.1862 46.0229 49.2344 46.1951 49.3307C46.3673 49.4255 46.5008 49.5671 46.5956 49.7553C46.6905 49.9435 46.7379 50.1762 46.7379 50.4535V52.5918H46.0835V50.5323C46.0835 50.2886 46.02 50.0982 45.8931 49.961C45.7661 49.8224 45.5917 49.7531 45.37 49.7531C45.2182 49.7531 45.0832 49.7859 44.9651 49.8516C44.8483 49.9173 44.7557 50.0136 44.6871 50.1405C44.62 50.266 44.5864 50.4177 44.5864 50.5957ZM49.0316 52.6596C48.7062 52.6596 48.4261 52.586 48.1911 52.4386C47.9577 52.2898 47.7782 52.0848 47.6527 51.8236C47.5273 51.5624 47.4645 51.2633 47.4645 50.9262C47.4645 50.5848 47.5287 50.2835 47.6571 50.0223C47.7855 49.7597 47.9664 49.5547 48.1999 49.4073C48.4334 49.2599 48.7084 49.1862 49.025 49.1862C49.2804 49.1862 49.508 49.2337 49.7079 49.3285C49.9078 49.4219 50.069 49.5532 50.1916 49.7225C50.3156 49.8917 50.3893 50.0894 50.4126 50.3156H49.7757C49.7407 50.158 49.6605 50.0223 49.535 49.9085C49.411 49.7947 49.2446 49.7378 49.036 49.7378C48.8536 49.7378 48.6938 49.7859 48.5567 49.8822C48.421 49.9771 48.3152 50.1128 48.2393 50.2893C48.1634 50.4644 48.1255 50.6716 48.1255 50.9109C48.1255 51.156 48.1627 51.3676 48.2371 51.5456C48.3115 51.7236 48.4166 51.8615 48.5523 51.9593C48.6894 52.057 48.8507 52.1059 49.036 52.1059C49.16 52.1059 49.2723 52.0833 49.373 52.0381C49.4752 51.9914 49.5605 51.925 49.6291 51.8389C49.6991 51.7528 49.748 51.6492 49.7757 51.5281H50.4126C50.3893 51.7455 50.3185 51.9396 50.2003 52.1103C50.0821 52.281 49.9238 52.4152 49.7254 52.513C49.5284 52.6108 49.2971 52.6596 49.0316 52.6596ZM51.5261 53.8525C51.4284 53.8525 51.3394 53.8444 51.2591 53.8284C51.1788 53.8138 51.119 53.7977 51.0796 53.7802L51.2372 53.244C51.3569 53.2761 51.4634 53.29 51.5568 53.2856C51.6501 53.2812 51.7326 53.2462 51.8041 53.1805C51.877 53.1149 51.9412 53.0076 51.9967 52.8588L52.0777 52.6356L50.8476 49.23H51.548L52.3994 51.8389H52.4344L53.2858 49.23H53.9884L52.6029 53.0405C52.5387 53.2156 52.457 53.3637 52.3578 53.4848C52.2586 53.6073 52.1404 53.6993 52.0032 53.7605C51.8661 53.8218 51.707 53.8525 51.5261 53.8525Z" fill="#09090B"/>
<path d="M152.646 53.5918V53.1978L154.125 51.5782C154.299 51.3885 154.442 51.2237 154.554 51.0836C154.666 50.9421 154.75 50.8093 154.804 50.6853C154.859 50.5598 154.887 50.4285 154.887 50.2913C154.887 50.1337 154.849 49.9973 154.773 49.882C154.699 49.7667 154.596 49.6777 154.467 49.615C154.337 49.5523 154.191 49.5209 154.029 49.5209C153.857 49.5209 153.706 49.5566 153.578 49.6281C153.451 49.6982 153.353 49.7967 153.283 49.9236C153.214 50.0505 153.18 50.1994 153.18 50.3701H152.663C152.663 50.1075 152.724 49.8769 152.845 49.6785C152.966 49.48 153.131 49.3254 153.339 49.2145C153.55 49.1036 153.785 49.0481 154.046 49.0481C154.309 49.0481 154.542 49.1036 154.745 49.2145C154.947 49.3254 155.106 49.4749 155.222 49.6632C155.337 49.8514 155.395 50.0608 155.395 50.2913C155.395 50.4562 155.365 50.6174 155.305 50.775C155.246 50.9311 155.144 51.1055 154.998 51.2981C154.854 51.4892 154.653 51.7227 154.397 51.9985L153.39 53.0753V53.1103H155.473V53.5918H152.646ZM157.778 53.6531C157.521 53.6531 157.29 53.602 157.084 53.4999C156.879 53.3977 156.714 53.2577 156.59 53.0797C156.466 52.9016 156.398 52.6988 156.386 52.4712H156.911C156.932 52.674 157.024 52.8418 157.187 52.9746C157.352 53.1059 157.549 53.1716 157.778 53.1716C157.962 53.1716 158.125 53.1285 158.268 53.0424C158.413 52.9564 158.526 52.8382 158.608 52.6879C158.691 52.5361 158.732 52.3647 158.732 52.1735C158.732 51.978 158.689 51.8037 158.603 51.6505C158.519 51.4958 158.402 51.374 158.253 51.2849C158.104 51.1959 157.934 51.1507 157.743 51.1493C157.606 51.1478 157.465 51.169 157.321 51.2127C157.176 51.255 157.057 51.3098 156.964 51.3769L156.456 51.3156L156.727 49.1094H159.056V49.5909H157.183L157.025 50.9129H157.051C157.143 50.8399 157.259 50.7794 157.397 50.7312C157.536 50.6831 157.68 50.659 157.831 50.659C158.105 50.659 158.349 50.7247 158.564 50.856C158.78 50.9858 158.949 51.1638 159.072 51.39C159.196 51.6162 159.258 51.8744 159.258 52.1648C159.258 52.4508 159.193 52.7061 159.065 52.9308C158.938 53.1541 158.763 53.3306 158.54 53.4605C158.316 53.5889 158.063 53.6531 157.778 53.6531ZM161.615 53.6531C161.431 53.6502 161.248 53.6151 161.064 53.548C160.88 53.4809 160.712 53.3678 160.56 53.2088C160.409 53.0483 160.287 52.8316 160.195 52.5587C160.103 52.2844 160.057 51.9401 160.057 51.5257C160.057 51.1288 160.094 50.7772 160.169 50.4708C160.243 50.1629 160.351 49.9039 160.493 49.6938C160.634 49.4822 160.805 49.3217 161.005 49.2123C161.206 49.1029 161.433 49.0481 161.685 49.0481C161.936 49.0481 162.16 49.0985 162.355 49.1992C162.552 49.2984 162.713 49.437 162.837 49.615C162.961 49.793 163.041 49.998 163.077 50.23H162.543C162.494 50.0287 162.397 49.8616 162.254 49.7288C162.111 49.596 161.922 49.5296 161.685 49.5296C161.338 49.5296 161.064 49.6807 160.865 49.9827C160.666 50.2847 160.566 50.7086 160.565 51.2543H160.6C160.681 51.1303 160.779 51.0245 160.891 50.937C161.005 50.8479 161.13 50.7794 161.267 50.7312C161.404 50.6831 161.55 50.659 161.703 50.659C161.96 50.659 162.195 50.7232 162.408 50.8516C162.621 50.9785 162.791 51.1544 162.92 51.3791C163.048 51.6023 163.112 51.8584 163.112 52.1473C163.112 52.4245 163.05 52.6784 162.926 52.9089C162.802 53.138 162.628 53.3204 162.403 53.4561C162.18 53.5903 161.917 53.656 161.615 53.6531ZM161.615 53.1716C161.799 53.1716 161.964 53.1256 162.11 53.0337C162.257 52.9418 162.373 52.8185 162.458 52.6638C162.544 52.5091 162.587 52.337 162.587 52.1473C162.587 51.962 162.545 51.7934 162.462 51.6417C162.381 51.4885 162.268 51.3667 162.123 51.2762C161.98 51.1857 161.817 51.1405 161.633 51.1405C161.494 51.1405 161.365 51.1682 161.245 51.2237C161.126 51.2777 161.021 51.3521 160.93 51.4469C160.841 51.5418 160.771 51.6505 160.72 51.773C160.669 51.8941 160.644 52.0218 160.644 52.156C160.644 52.334 160.685 52.5004 160.768 52.6551C160.853 52.8097 160.968 52.9345 161.114 53.0293C161.261 53.1242 161.429 53.1716 161.615 53.1716Z" fill="#71717A"/>
<g clip-path="url(#clip1_156_12719)">
<path d="M13.8193 63.9564C13.8193 63.227 14.4106 62.6357 15.14 62.6357H162.861C163.59 62.6357 164.182 63.227 164.182 63.9564C164.182 64.6858 163.59 65.2771 162.861 65.2771H15.14C14.4106 65.2771 13.8193 64.6858 13.8193 63.9564Z" fill="#18181B" fill-opacity="0.2"/>
<rect x="-66.7432" y="62.6357" width="88.0466" height="2.6414" rx="1.3207" fill="#18181B"/>
</g>
<circle cx="21.7435" cy="63.9564" r="3.52187" fill="white"/>
<circle cx="21.7435" cy="63.9564" r="3.30175" stroke="#18181B" stroke-opacity="0.5" stroke-width="0.440233"/>
<path d="M14.3118 81.8418V77.3594H15.9095C16.2568 77.3594 16.5449 77.4192 16.774 77.5389C17.0046 77.6585 17.1767 77.8241 17.2906 78.0357C17.4044 78.2458 17.4613 78.4888 17.4613 78.7645C17.4613 79.0389 17.4036 79.2803 17.2884 79.489C17.1746 79.6962 17.0024 79.8574 16.7718 79.9727C16.5428 80.088 16.2546 80.1456 15.9073 80.1456H14.697V79.5634H15.846C16.0649 79.5634 16.2429 79.532 16.3801 79.4693C16.5187 79.4065 16.6201 79.3154 16.6843 79.1957C16.7485 79.0761 16.7806 78.9323 16.7806 78.7645C16.7806 78.5953 16.7478 78.4486 16.6821 78.3246C16.6179 78.2006 16.5165 78.1058 16.3779 78.0401C16.2407 77.973 16.0605 77.9394 15.8373 77.9394H14.9881V81.8418H14.3118ZM16.5245 79.8195L17.632 81.8418H16.8616L15.776 79.8195H16.5245ZM19.6056 81.9096C19.2904 81.9096 19.0154 81.8374 18.7805 81.693C18.5456 81.5485 18.3632 81.3464 18.2333 81.0867C18.1035 80.827 18.0385 80.5235 18.0385 80.1762C18.0385 79.8275 18.1035 79.5225 18.2333 79.2614C18.3632 79.0002 18.5456 78.7974 18.7805 78.6529C19.0154 78.5085 19.2904 78.4362 19.6056 78.4362C19.9208 78.4362 20.1958 78.5085 20.4307 78.6529C20.6656 78.7974 20.848 79.0002 20.9779 79.2614C21.1078 79.5225 21.1727 79.8275 21.1727 80.1762C21.1727 80.5235 21.1078 80.827 20.9779 81.0867C20.848 81.3464 20.6656 81.5485 20.4307 81.693C20.1958 81.8374 19.9208 81.9096 19.6056 81.9096ZM19.6078 81.3603C19.8121 81.3603 19.9813 81.3063 20.1156 81.1983C20.2498 81.0904 20.349 80.9466 20.4132 80.7672C20.4789 80.5877 20.5117 80.39 20.5117 80.174C20.5117 79.9595 20.4789 79.7626 20.4132 79.5831C20.349 79.4022 20.2498 79.257 20.1156 79.1476C19.9813 79.0381 19.8121 78.9834 19.6078 78.9834C19.4021 78.9834 19.2313 79.0381 19.0956 79.1476C18.9614 79.257 18.8615 79.4022 18.7958 79.5831C18.7316 79.7626 18.6995 79.9595 18.6995 80.174C18.6995 80.39 18.7316 80.5877 18.7958 80.7672C18.8615 80.9466 18.9614 81.0904 19.0956 81.1983C19.2313 81.3063 19.4021 81.3603 19.6078 81.3603ZM23.4724 78.48V79.0053H21.6361V78.48H23.4724ZM22.1286 77.6746H22.783V80.8547C22.783 80.9817 22.802 81.0772 22.8399 81.1414C22.8778 81.2042 22.9267 81.2472 22.9865 81.2706C23.0478 81.2924 23.1142 81.3034 23.1857 81.3034C23.2382 81.3034 23.2842 81.2997 23.3236 81.2924C23.363 81.2851 23.3936 81.2793 23.4155 81.2749L23.5337 81.8155C23.4958 81.8301 23.4418 81.8447 23.3717 81.8593C23.3017 81.8754 23.2142 81.8841 23.1091 81.8856C22.9369 81.8885 22.7764 81.8578 22.6276 81.7936C22.4788 81.7294 22.3584 81.6302 22.2665 81.496C22.1745 81.3618 22.1286 81.1932 22.1286 80.9904V77.6746ZM25.1747 81.9162C24.9616 81.9162 24.769 81.8768 24.5968 81.798C24.4247 81.7178 24.2882 81.6018 24.1876 81.45C24.0883 81.2983 24.0387 81.1122 24.0387 80.8919C24.0387 80.7022 24.0752 80.5461 24.1482 80.4235C24.2211 80.301 24.3196 80.2039 24.4436 80.1325C24.5677 80.061 24.7063 80.007 24.8595 79.9705C25.0127 79.934 25.1688 79.9063 25.3279 79.8873C25.5292 79.864 25.6926 79.845 25.8181 79.8304C25.9436 79.8144 26.0348 79.7888 26.0917 79.7538C26.1486 79.7188 26.1771 79.6619 26.1771 79.5831V79.5678C26.1771 79.3766 26.1231 79.2285 26.0151 79.1235C25.9086 79.0184 25.7495 78.9659 25.538 78.9659C25.3176 78.9659 25.144 79.0148 25.0171 79.1125C24.8916 79.2088 24.8048 79.3161 24.7566 79.4343L24.1416 79.2942C24.2146 79.0899 24.3211 78.925 24.4611 78.7996C24.6027 78.6726 24.7654 78.5807 24.9492 78.5238C25.1331 78.4654 25.3264 78.4362 25.5292 78.4362C25.6635 78.4362 25.8057 78.4523 25.956 78.4844C26.1077 78.515 26.2493 78.5719 26.3806 78.6551C26.5134 78.7383 26.6221 78.8572 26.7067 79.0119C26.7913 79.1651 26.8337 79.3642 26.8337 79.6094V81.8418H26.1946V81.3822H26.1683C26.126 81.4668 26.0625 81.55 25.9779 81.6317C25.8933 81.7134 25.7846 81.7812 25.6518 81.8352C25.519 81.8892 25.36 81.9162 25.1747 81.9162ZM25.3169 81.3909C25.4978 81.3909 25.6525 81.3552 25.7809 81.2837C25.9108 81.2122 26.0093 81.1188 26.0764 81.0035C26.145 80.8868 26.1792 80.7621 26.1792 80.6293V80.1959C26.1559 80.2193 26.1107 80.2412 26.0435 80.2616C25.9779 80.2806 25.9027 80.2973 25.8181 80.3119C25.7335 80.3251 25.651 80.3375 25.5708 80.3491C25.4905 80.3593 25.4234 80.3681 25.3694 80.3754C25.2425 80.3914 25.1265 80.4184 25.0214 80.4564C24.9178 80.4943 24.8347 80.549 24.7719 80.6205C24.7107 80.6906 24.68 80.7839 24.68 80.9007C24.68 81.0626 24.7398 81.1852 24.8595 81.2684C24.9791 81.3501 25.1316 81.3909 25.3169 81.3909ZM29.2746 78.48V79.0053H27.4383V78.48H29.2746ZM27.9307 77.6746H28.5851V80.8547C28.5851 80.9817 28.6041 81.0772 28.642 81.1414C28.68 81.2042 28.7289 81.2472 28.7887 81.2706C28.85 81.2924 28.9163 81.3034 28.9878 81.3034C29.0404 81.3034 29.0863 81.2997 29.1257 81.2924C29.1651 81.2851 29.1958 81.2793 29.2177 81.2749L29.3358 81.8155C29.2979 81.8301 29.2439 81.8447 29.1739 81.8593C29.1038 81.8754 29.0163 81.8841 28.9112 81.8856C28.7391 81.8885 28.5786 81.8578 28.4297 81.7936C28.2809 81.7294 28.1605 81.6302 28.0686 81.496C27.9767 81.3618 27.9307 81.1932 27.9307 80.9904V77.6746ZM29.9985 81.8418V78.48H30.6529V81.8418H29.9985ZM30.3289 77.9613C30.2151 77.9613 30.1174 77.9234 30.0357 77.8475C29.9554 77.7702 29.9153 77.6782 29.9153 77.5717C29.9153 77.4637 29.9554 77.3718 30.0357 77.296C30.1174 77.2186 30.2151 77.18 30.3289 77.18C30.4428 77.18 30.5398 77.2186 30.62 77.296C30.7017 77.3718 30.7426 77.4637 30.7426 77.5717C30.7426 77.6782 30.7017 77.7702 30.62 77.8475C30.5398 77.9234 30.4428 77.9613 30.3289 77.9613ZM32.9493 81.9096C32.6342 81.9096 32.3591 81.8374 32.1242 81.693C31.8893 81.5485 31.7069 81.3464 31.577 81.0867C31.4472 80.827 31.3822 80.5235 31.3822 80.1762C31.3822 79.8275 31.4472 79.5225 31.577 79.2614C31.7069 79.0002 31.8893 78.7974 32.1242 78.6529C32.3591 78.5085 32.6342 78.4362 32.9493 78.4362C33.2645 78.4362 33.5395 78.5085 33.7744 78.6529C34.0094 78.7974 34.1917 79.0002 34.3216 79.2614C34.4515 79.5225 34.5164 79.8275 34.5164 80.1762C34.5164 80.5235 34.4515 80.827 34.3216 81.0867C34.1917 81.3464 34.0094 81.5485 33.7744 81.693C33.5395 81.8374 33.2645 81.9096 32.9493 81.9096ZM32.9515 81.3603C33.1558 81.3603 33.325 81.3063 33.4593 81.1983C33.5935 81.0904 33.6927 80.9466 33.7569 80.7672C33.8226 80.5877 33.8554 80.39 33.8554 80.174C33.8554 79.9595 33.8226 79.7626 33.7569 79.5831C33.6927 79.4022 33.5935 79.257 33.4593 79.1476C33.325 79.0381 33.1558 78.9834 32.9515 78.9834C32.7458 78.9834 32.5751 79.0381 32.4394 79.1476C32.3051 79.257 32.2052 79.4022 32.1395 79.5831C32.0753 79.7626 32.0432 79.9595 32.0432 80.174C32.0432 80.39 32.0753 80.5877 32.1395 80.7672C32.2052 80.9466 32.3051 81.0904 32.4394 81.1983C32.5751 81.3063 32.7458 81.3603 32.9515 81.3603ZM35.9013 79.8457V81.8418H35.2469V78.48H35.875V79.0272H35.9166C35.9939 78.8492 36.115 78.7062 36.2799 78.5982C36.4462 78.4902 36.6556 78.4362 36.9081 78.4362C37.1371 78.4362 37.3378 78.4844 37.5099 78.5807C37.6821 78.6755 37.8156 78.8171 37.9105 79.0053C38.0053 79.1935 38.0527 79.4262 38.0527 79.7035V81.8418H37.3983V79.7823C37.3983 79.5386 37.3348 79.3482 37.2079 79.211C37.081 79.0724 36.9066 79.0031 36.6848 79.0031C36.5331 79.0031 36.3981 79.0359 36.2799 79.1016C36.1632 79.1673 36.0705 79.2636 36.002 79.3905C35.9348 79.516 35.9013 79.6677 35.9013 79.8457Z" fill="#09090B"/>
<path d="M156.108 82.9031C155.778 82.9031 155.497 82.8133 155.265 82.6339C155.033 82.4529 154.856 82.191 154.733 81.8481C154.611 81.5038 154.549 81.088 154.549 80.6006C154.549 80.1162 154.611 79.7025 154.733 79.3596C154.857 79.0153 155.035 78.7527 155.267 78.5717C155.501 78.3893 155.781 78.2981 156.108 78.2981C156.435 78.2981 156.714 78.3893 156.946 78.5717C157.179 78.7527 157.357 79.0153 157.48 79.3596C157.604 79.7025 157.666 80.1162 157.666 80.6006C157.666 81.088 157.605 81.5038 157.482 81.8481C157.36 82.191 157.182 82.4529 156.95 82.6339C156.718 82.8133 156.437 82.9031 156.108 82.9031ZM156.108 82.4216C156.435 82.4216 156.688 82.264 156.869 81.9488C157.05 81.6337 157.141 81.1843 157.141 80.6006C157.141 80.2125 157.099 79.882 157.016 79.6091C156.934 79.3363 156.816 79.1284 156.661 78.9854C156.508 78.8424 156.324 78.7709 156.108 78.7709C155.784 78.7709 155.531 78.9307 155.348 79.2502C155.166 79.5683 155.075 80.0184 155.075 80.6006C155.075 80.9887 155.115 81.3185 155.197 81.5899C155.279 81.8613 155.396 82.0677 155.55 82.2093C155.704 82.3508 155.89 82.4216 156.108 82.4216ZM158.726 82.8768C158.618 82.8768 158.526 82.8381 158.448 82.7608C158.371 82.6835 158.332 82.5908 158.332 82.4829C158.332 82.3749 158.371 82.2822 158.448 82.2049C158.526 82.1276 158.618 82.0889 158.726 82.0889C158.834 82.0889 158.927 82.1276 159.004 82.2049C159.082 82.2822 159.12 82.3749 159.12 82.4829C159.12 82.5544 159.102 82.62 159.066 82.6798C159.031 82.7397 158.983 82.7878 158.923 82.8243C158.865 82.8593 158.799 82.8768 158.726 82.8768ZM161.423 78.2981C161.607 78.2996 161.791 78.3346 161.975 78.4032C162.159 78.4718 162.327 78.5856 162.478 78.7446C162.63 78.9022 162.752 79.1174 162.844 79.3903C162.936 79.6631 162.982 80.0053 162.982 80.4168C162.982 80.8151 162.944 81.1689 162.868 81.4783C162.793 81.7861 162.685 82.0459 162.544 82.2574C162.404 82.469 162.233 82.6295 162.032 82.7389C161.832 82.8484 161.606 82.9031 161.353 82.9031C161.102 82.9031 160.878 82.8535 160.681 82.7543C160.486 82.6536 160.325 82.5142 160.2 82.3362C160.076 82.1567 159.996 81.9488 159.961 81.7124H160.495C160.544 81.9182 160.639 82.0882 160.782 82.2224C160.927 82.3552 161.117 82.4216 161.353 82.4216C161.699 82.4216 161.972 82.2706 162.172 81.9685C162.373 81.6665 162.474 81.2397 162.474 80.6882H162.439C162.357 80.8107 162.26 80.9165 162.148 81.0055C162.035 81.0945 161.911 81.1631 161.774 81.2112C161.636 81.2594 161.49 81.2835 161.336 81.2835C161.079 81.2835 160.843 81.22 160.629 81.0931C160.416 80.9647 160.245 80.7888 160.117 80.5656C159.99 80.3409 159.926 80.0841 159.926 79.7952C159.926 79.5209 159.988 79.2699 160.11 79.0423C160.234 78.8132 160.408 78.6308 160.631 78.4951C160.856 78.3594 161.12 78.2938 161.423 78.2981ZM161.423 78.7796C161.24 78.7796 161.074 78.8256 160.927 78.9175C160.781 79.008 160.665 79.1306 160.579 79.2852C160.494 79.4384 160.452 79.6084 160.452 79.7952C160.452 79.9819 160.492 80.1519 160.574 80.3051C160.657 80.4569 160.77 80.578 160.913 80.6685C161.058 80.7575 161.222 80.802 161.406 80.802C161.544 80.802 161.674 80.775 161.793 80.721C161.913 80.6655 162.017 80.5904 162.106 80.4956C162.197 80.3993 162.267 80.2905 162.319 80.1694C162.37 80.0469 162.395 79.9192 162.395 79.7864C162.395 79.6113 162.353 79.4472 162.268 79.294C162.185 79.1408 162.07 79.0167 161.922 78.9219C161.776 78.8271 161.61 78.7796 161.423 78.7796Z" fill="#71717A"/>
<g clip-path="url(#clip2_156_12719)">
<path d="M13.8193 93.2064C13.8193 92.477 14.4106 91.8857 15.14 91.8857H162.861C163.59 91.8857 164.182 92.477 164.182 93.2064C164.182 93.9358 163.59 94.5271 162.861 94.5271H15.14C14.4106 94.5271 13.8193 93.9358 13.8193 93.2064Z" fill="#18181B" fill-opacity="0.2"/>
<rect x="-66.7432" y="91.8857" width="88.0466" height="2.6414" rx="1.3207" fill="#18181B"/>
</g>
<circle cx="21.7435" cy="93.2064" r="3.52187" fill="white"/>
<circle cx="21.7435" cy="93.2064" r="3.30175" stroke="#18181B" stroke-opacity="0.5" stroke-width="0.440233"/>
<path opacity="0.2" d="M1203 326L1203 186.647C1203 178.005 1210.01 171 1218.65 171L1313 171" stroke="white" stroke-width="0.782351"/>
<circle opacity="0.2" cx="3.91176" cy="3.91176" r="3.91176" transform="matrix(-1 0 0 1 1323.08 166.942)" fill="white"/>
<rect x="1339.34" y="149" width="94.6645" height="48.9009" rx="7.82351" fill="#737DE3"/>
<path d="M1353.83 166.215C1353.83 164.709 1355.05 163.489 1356.55 163.489H1370.42C1371.92 163.489 1373.14 164.709 1373.14 166.215V180.686C1373.14 182.191 1371.92 183.411 1370.42 183.411H1356.55C1355.05 183.411 1353.83 182.191 1353.83 180.686V166.215Z" fill="#5F69C5"/>
<path d="M1364.13 173.45C1364.47 173.45 1364.8 173.314 1365.04 173.073C1365.28 172.831 1365.42 172.504 1365.42 172.162C1365.42 171.82 1365.28 171.493 1365.04 171.251C1364.8 171.01 1364.47 170.874 1364.13 170.874H1361.55V173.45M1361.55 173.45H1364.45C1364.79 173.45 1365.12 173.586 1365.36 173.827C1365.6 174.069 1365.74 174.396 1365.74 174.738C1365.74 175.079 1365.6 175.407 1365.36 175.649C1365.12 175.89 1364.79 176.026 1364.45 176.026H1361.55V173.45Z" stroke="white" stroke-width="0.965964" stroke-linecap="round" stroke-linejoin="round"/>
<path d="M1388.92 170.573H1386.02M1387.31 175.725H1384.41M1387.63 170.573L1385.7 175.725" stroke="white" stroke-width="0.965964" stroke-linecap="round" stroke-linejoin="round"/>
<path d="M1400.19 166.215C1400.19 164.709 1401.41 163.489 1402.92 163.489H1416.79C1418.29 163.489 1419.51 164.709 1419.51 166.215V180.083C1419.51 181.588 1418.29 182.809 1416.79 182.809H1402.92C1401.41 182.809 1400.19 181.588 1400.19 180.083V166.215Z" fill="#5F69C5"/>
<path d="M1407.92 170.573V172.505C1407.92 173.018 1408.12 173.509 1408.49 173.871C1408.85 174.234 1409.34 174.437 1409.85 174.437C1410.36 174.437 1410.86 174.234 1411.22 173.871C1411.58 173.509 1411.78 173.018 1411.78 172.505V170.573M1407.28 175.725H1412.43" stroke="white" stroke-width="0.965964" stroke-linecap="round" stroke-linejoin="round"/>
<path opacity="0.2" d="M1165 326L1165 75C1165 63.9543 1173.95 55 1185 55L1306 55" stroke="white"/>
<circle opacity="0.2" cx="5" cy="5" r="5" transform="matrix(-1 0 0 1 1319 50)" fill="white"/>
<rect x="1339" y="17" width="208.438" height="98.9384" rx="13.1926" fill="white"/>
<path d="M1357.61 36.8467V36.0431H1362.39V36.8467H1360.46V42.2305H1359.53V36.8467H1357.61ZM1364.71 42.3241C1364.25 42.3241 1363.86 42.2264 1363.53 42.0311C1363.2 41.8337 1362.94 41.5567 1362.76 41.2002C1362.59 40.8417 1362.5 40.4218 1362.5 39.9404C1362.5 39.4651 1362.59 39.0461 1362.76 38.6836C1362.94 38.321 1363.19 38.0381 1363.51 37.8346C1363.84 37.6312 1364.21 37.5295 1364.64 37.5295C1364.9 37.5295 1365.16 37.5728 1365.4 37.6594C1365.65 37.746 1365.87 37.882 1366.07 38.0673C1366.26 38.2526 1366.42 38.4932 1366.53 38.7893C1366.64 39.0834 1366.7 39.4409 1366.7 39.8619V40.1821H1363.01V39.5054H1365.81C1365.81 39.2677 1365.76 39.0572 1365.67 38.8739C1365.57 38.6886 1365.43 38.5426 1365.26 38.4358C1365.09 38.3291 1364.88 38.2757 1364.65 38.2757C1364.4 38.2757 1364.17 38.3382 1363.98 38.463C1363.8 38.5859 1363.65 38.747 1363.55 38.9464C1363.45 39.1438 1363.4 39.3583 1363.4 39.5899V40.1187C1363.4 40.4288 1363.45 40.6927 1363.56 40.9102C1363.67 41.1277 1363.83 41.2939 1364.02 41.4087C1364.22 41.5215 1364.45 41.5779 1364.72 41.5779C1364.89 41.5779 1365.04 41.5537 1365.18 41.5054C1365.32 41.455 1365.45 41.3805 1365.55 41.2818C1365.65 41.1831 1365.73 41.0613 1365.78 40.9162L1366.64 41.0703C1366.57 41.3221 1366.45 41.5426 1366.27 41.732C1366.1 41.9193 1365.88 42.0653 1365.61 42.17C1365.35 42.2728 1365.04 42.3241 1364.71 42.3241ZM1368.3 37.5899L1369.33 39.3966L1370.36 37.5899H1371.35L1369.9 39.9102L1371.36 42.2305H1370.37L1369.33 40.4963L1368.29 42.2305H1367.3L1368.74 39.9102L1367.31 37.5899H1368.3ZM1374.44 37.5899V38.315H1371.91V37.5899H1374.44ZM1372.59 36.4781H1373.49V40.8679C1373.49 41.0431 1373.52 41.1751 1373.57 41.2637C1373.62 41.3503 1373.69 41.4097 1373.77 41.4419C1373.86 41.4721 1373.95 41.4873 1374.05 41.4873C1374.12 41.4873 1374.18 41.4822 1374.24 41.4721C1374.29 41.4621 1374.33 41.454 1374.37 41.448L1374.53 42.1942C1374.48 42.2144 1374.4 42.2345 1374.3 42.2546C1374.21 42.2768 1374.09 42.2889 1373.94 42.2909C1373.7 42.2949 1373.48 42.2526 1373.28 42.164C1373.07 42.0754 1372.91 41.9384 1372.78 41.7531C1372.65 41.5678 1372.59 41.3352 1372.59 41.0552V36.4781Z" fill="#09090B"/>
<path d="M1360.88 49.3955H1525.56C1527.41 49.3957 1528.9 50.8925 1528.9 52.7383V94.0605C1528.9 95.9063 1527.41 97.4031 1525.56 97.4033H1360.88C1359.03 97.4033 1357.53 95.9065 1357.53 94.0605V52.7383C1357.53 50.8924 1359.03 49.3955 1360.88 49.3955Z" fill="white"/>
<path d="M1360.88 49.3955H1525.56C1527.41 49.3957 1528.9 50.8925 1528.9 52.7383V94.0605C1528.9 95.9063 1527.41 97.4031 1525.56 97.4033H1360.88C1359.03 97.4033 1357.53 95.9065 1357.53 94.0605V52.7383C1357.53 50.8924 1359.03 49.3955 1360.88 49.3955Z" stroke="#E4E4E7" stroke-width="0.607692"/>
<path d="M1366.4 62.9531L1364.7 56.7657H1365.47L1366.76 61.8051H1366.82L1368.14 56.7657H1368.98L1370.3 61.8051H1370.36L1371.65 56.7657H1372.41L1370.72 62.9531H1369.95L1368.58 58.0225H1368.53L1367.17 62.9531H1366.4ZM1374.18 63.0619C1373.89 63.0619 1373.62 63.0065 1373.38 62.8957C1373.14 62.7829 1372.95 62.6208 1372.81 62.4093C1372.67 62.1958 1372.6 61.938 1372.6 61.6359C1372.6 61.37 1372.65 61.1545 1372.76 60.9893C1372.86 60.8222 1373 60.6913 1373.18 60.5966C1373.35 60.5019 1373.55 60.4314 1373.76 60.3851C1373.97 60.3368 1374.19 60.2985 1374.4 60.2703C1374.68 60.234 1374.91 60.2069 1375.09 60.1887C1375.26 60.1686 1375.39 60.1354 1375.47 60.089C1375.56 60.0427 1375.6 59.9621 1375.6 59.8473V59.8232C1375.6 59.5251 1375.52 59.2935 1375.35 59.1283C1375.19 58.9631 1374.95 58.8806 1374.62 58.8806C1374.28 58.8806 1374.01 58.9551 1373.82 59.1041C1373.63 59.2532 1373.49 59.4123 1373.41 59.5815L1372.73 59.3398C1372.85 59.0578 1373.02 58.8383 1373.22 58.6812C1373.42 58.522 1373.64 58.4113 1373.88 58.3488C1374.12 58.2844 1374.36 58.2521 1374.6 58.2521C1374.74 58.2521 1374.92 58.2703 1375.11 58.3065C1375.3 58.3408 1375.49 58.4123 1375.67 58.521C1375.86 58.6298 1376.01 58.7939 1376.13 59.0135C1376.25 59.233 1376.31 59.5271 1376.31 59.8957V62.9531H1375.6V62.3247H1375.56C1375.51 62.4254 1375.43 62.5332 1375.32 62.648C1375.21 62.7628 1375.06 62.8605 1374.87 62.941C1374.68 63.0216 1374.45 63.0619 1374.18 63.0619ZM1374.29 62.4214C1374.57 62.4214 1374.81 62.366 1375.01 62.2552C1375.2 62.1445 1375.35 62.0014 1375.45 61.8262C1375.55 61.651 1375.6 61.4667 1375.6 61.2733V60.6208C1375.57 60.657 1375.5 60.6902 1375.4 60.7205C1375.3 60.7487 1375.18 60.7738 1375.05 60.796C1374.92 60.8161 1374.79 60.8343 1374.66 60.8504C1374.54 60.8645 1374.44 60.8766 1374.37 60.8866C1374.18 60.9108 1374.01 60.9501 1373.85 61.0045C1373.69 61.0568 1373.56 61.1364 1373.46 61.2431C1373.36 61.3479 1373.31 61.4909 1373.31 61.6721C1373.31 61.9199 1373.41 62.1072 1373.59 62.2341C1373.77 62.359 1374.01 62.4214 1374.29 62.4214ZM1379.63 58.3126V58.9168H1377.23V58.3126H1379.63ZM1377.93 57.2008H1378.64V61.6238C1378.64 61.8252 1378.67 61.9763 1378.73 62.077C1378.79 62.1757 1378.86 62.2421 1378.96 62.2764C1379.05 62.3086 1379.15 62.3247 1379.26 62.3247C1379.33 62.3247 1379.4 62.3207 1379.45 62.3126C1379.5 62.3026 1379.54 62.2945 1379.57 62.2885L1379.72 62.929C1379.67 62.9471 1379.6 62.9652 1379.51 62.9833C1379.43 63.0035 1379.32 63.0135 1379.18 63.0135C1378.98 63.0135 1378.78 62.9702 1378.59 62.8836C1378.4 62.797 1378.24 62.6651 1378.11 62.4879C1377.99 62.3106 1377.93 62.087 1377.93 61.8172V57.2008ZM1382.6 63.0498C1382.15 63.0498 1381.77 62.9511 1381.44 62.7537C1381.12 62.5543 1380.87 62.2764 1380.7 61.9199C1380.52 61.5614 1380.44 61.1444 1380.44 60.6691C1380.44 60.1938 1380.52 59.7748 1380.7 59.4123C1380.87 59.0477 1381.11 58.7637 1381.43 58.5603C1381.74 58.3549 1382.11 58.2521 1382.53 58.2521C1382.77 58.2521 1383.01 58.2924 1383.24 58.373C1383.48 58.4536 1383.69 58.5845 1383.89 58.7657C1384.08 58.945 1384.23 59.1827 1384.35 59.4788C1384.46 59.7748 1384.52 60.1394 1384.52 60.5724V60.8745H1380.94V60.2582H1383.8C1383.8 59.9964 1383.74 59.7627 1383.64 59.5573C1383.54 59.3519 1383.39 59.1897 1383.2 59.0709C1383.01 58.9521 1382.78 58.8926 1382.53 58.8926C1382.24 58.8926 1382 58.9631 1381.79 59.1041C1381.58 59.2431 1381.43 59.4244 1381.32 59.6479C1381.2 59.8715 1381.15 60.1112 1381.15 60.367V60.7779C1381.15 61.1283 1381.21 61.4254 1381.33 61.6691C1381.45 61.9108 1381.62 62.0951 1381.84 62.222C1382.06 62.3469 1382.31 62.4093 1382.6 62.4093C1382.79 62.4093 1382.96 62.3831 1383.11 62.3308C1383.26 62.2764 1383.39 62.1958 1383.5 62.0891C1383.61 61.9803 1383.7 61.8454 1383.76 61.6842L1384.45 61.8776C1384.38 62.1112 1384.25 62.3167 1384.08 62.4939C1383.91 62.6691 1383.7 62.8061 1383.45 62.9048C1383.2 63.0015 1382.91 63.0498 1382.6 63.0498ZM1385.61 62.9531V58.3126H1386.29V59.0135H1386.34C1386.43 58.7839 1386.58 58.5976 1386.8 58.4546C1387.02 58.3116 1387.27 58.2401 1387.55 58.2401C1387.6 58.2401 1387.67 58.2411 1387.75 58.2431C1387.83 58.2451 1387.89 58.2481 1387.93 58.2521V58.9772C1387.9 58.9712 1387.85 58.9621 1387.76 58.95C1387.67 58.9359 1387.59 58.9289 1387.49 58.9289C1387.26 58.9289 1387.06 58.9762 1386.89 59.0709C1386.71 59.1635 1386.57 59.2924 1386.47 59.4576C1386.37 59.6207 1386.32 59.8071 1386.32 60.0165V62.9531H1385.61ZM1388.77 62.9531V58.3126H1389.46V59.0377H1389.52C1389.62 58.7899 1389.77 58.5976 1389.99 58.4606C1390.2 58.3216 1390.46 58.2521 1390.76 58.2521C1391.07 58.2521 1391.33 58.3216 1391.53 58.4606C1391.73 58.5976 1391.89 58.7899 1392.01 59.0377H1392.06C1392.18 58.798 1392.35 58.6076 1392.59 58.4667C1392.83 58.3236 1393.12 58.2521 1393.45 58.2521C1393.86 58.2521 1394.2 58.3821 1394.47 58.6419C1394.73 58.8997 1394.86 59.3015 1394.86 59.8473V62.9531H1394.15V59.8473C1394.15 59.5049 1394.05 59.2602 1393.87 59.1132C1393.68 58.9662 1393.46 58.8926 1393.21 58.8926C1392.88 58.8926 1392.63 58.9913 1392.45 59.1887C1392.27 59.3841 1392.18 59.6318 1392.18 59.9319V62.9531H1391.45V59.7748C1391.45 59.511 1391.37 59.2985 1391.2 59.1374C1391.03 58.9742 1390.8 58.8926 1390.53 58.8926C1390.35 58.8926 1390.18 58.942 1390.02 59.0407C1389.86 59.1394 1389.73 59.2763 1389.63 59.4516C1389.53 59.6248 1389.48 59.8252 1389.48 60.0528V62.9531H1388.77ZM1397.53 63.0619C1397.24 63.0619 1396.97 63.0065 1396.73 62.8957C1396.49 62.7829 1396.3 62.6208 1396.16 62.4093C1396.02 62.1958 1395.95 61.938 1395.95 61.6359C1395.95 61.37 1396 61.1545 1396.1 60.9893C1396.21 60.8222 1396.35 60.6913 1396.52 60.5966C1396.7 60.5019 1396.89 60.4314 1397.1 60.3851C1397.32 60.3368 1397.53 60.2985 1397.75 60.2703C1398.03 60.234 1398.26 60.2069 1398.43 60.1887C1398.61 60.1686 1398.74 60.1354 1398.82 60.089C1398.9 60.0427 1398.94 59.9621 1398.94 59.8473V59.8232C1398.94 59.5251 1398.86 59.2935 1398.7 59.1283C1398.54 58.9631 1398.29 58.8806 1397.97 58.8806C1397.63 58.8806 1397.36 58.9551 1397.16 59.1041C1396.97 59.2532 1396.84 59.4123 1396.76 59.5815L1396.08 59.3398C1396.2 59.0578 1396.36 58.8383 1396.56 58.6812C1396.77 58.522 1396.99 58.4113 1397.23 58.3488C1397.47 58.2844 1397.71 58.2521 1397.94 58.2521C1398.09 58.2521 1398.26 58.2703 1398.46 58.3065C1398.65 58.3408 1398.84 58.4123 1399.02 58.521C1399.2 58.6298 1399.36 58.7939 1399.48 59.0135C1399.6 59.233 1399.66 59.5271 1399.66 59.8957V62.9531H1398.94V62.3247H1398.91C1398.86 62.4254 1398.78 62.5332 1398.67 62.648C1398.55 62.7628 1398.4 62.8605 1398.22 62.941C1398.03 63.0216 1397.8 63.0619 1397.53 63.0619ZM1397.64 62.4214C1397.92 62.4214 1398.16 62.366 1398.35 62.2552C1398.55 62.1445 1398.69 62.0014 1398.79 61.8262C1398.89 61.651 1398.94 61.4667 1398.94 61.2733V60.6208C1398.91 60.657 1398.85 60.6902 1398.75 60.7205C1398.64 60.7487 1398.53 60.7738 1398.39 60.796C1398.26 60.8161 1398.14 60.8343 1398.01 60.8504C1397.89 60.8645 1397.79 60.8766 1397.71 60.8866C1397.53 60.9108 1397.35 60.9501 1397.19 61.0045C1397.03 61.0568 1396.9 61.1364 1396.81 61.2431C1396.71 61.3479 1396.66 61.4909 1396.66 61.6721C1396.66 61.9199 1396.75 62.1072 1396.94 62.2341C1397.12 62.359 1397.36 62.4214 1397.64 62.4214ZM1400.96 62.9531V58.3126H1401.65V59.0135H1401.7C1401.78 58.7839 1401.93 58.5976 1402.16 58.4546C1402.38 58.3116 1402.63 58.2401 1402.9 58.2401C1402.96 58.2401 1403.02 58.2411 1403.1 58.2431C1403.18 58.2451 1403.24 58.2481 1403.28 58.2521V58.9772C1403.25 58.9712 1403.2 58.9621 1403.11 58.95C1403.03 58.9359 1402.94 58.9289 1402.84 58.9289C1402.62 58.9289 1402.42 58.9762 1402.24 59.0709C1402.06 59.1635 1401.93 59.2924 1401.82 59.4576C1401.72 59.6207 1401.67 59.8071 1401.67 60.0165V62.9531H1400.96ZM1404.79 61.2613L1404.78 60.3791H1404.92L1406.95 58.3126H1407.83L1405.67 60.4999H1405.61L1404.79 61.2613ZM1404.12 62.9531V56.7657H1404.84V62.9531H1404.12ZM1407.07 62.9531L1405.26 60.657L1405.77 60.1615L1407.98 62.9531H1407.07ZM1413.16 58.3126V58.9168H1410.76V58.3126H1413.16ZM1411.46 57.2008H1412.17V61.6238C1412.17 61.8252 1412.2 61.9763 1412.26 62.077C1412.32 62.1757 1412.4 62.2421 1412.49 62.2764C1412.58 62.3086 1412.68 62.3247 1412.79 62.3247C1412.87 62.3247 1412.93 62.3207 1412.98 62.3126C1413.03 62.3026 1413.07 62.2945 1413.1 62.2885L1413.25 62.929C1413.2 62.9471 1413.13 62.9652 1413.05 62.9833C1412.96 63.0035 1412.85 63.0135 1412.72 63.0135C1412.51 63.0135 1412.32 62.9702 1412.12 62.8836C1411.93 62.797 1411.77 62.6651 1411.65 62.4879C1411.52 62.3106 1411.46 62.087 1411.46 61.8172V57.2008ZM1416.13 63.0498C1415.68 63.0498 1415.3 62.9511 1414.97 62.7537C1414.65 62.5543 1414.4 62.2764 1414.23 61.9199C1414.05 61.5614 1413.97 61.1444 1413.97 60.6691C1413.97 60.1938 1414.05 59.7748 1414.23 59.4123C1414.4 59.0477 1414.65 58.7637 1414.96 58.5603C1415.27 58.3549 1415.64 58.2521 1416.06 58.2521C1416.3 58.2521 1416.54 58.2924 1416.77 58.373C1417.01 58.4536 1417.22 58.5845 1417.42 58.7657C1417.61 58.945 1417.77 59.1827 1417.88 59.4788C1418 59.7748 1418.05 60.1394 1418.05 60.5724V60.8745H1414.48V60.2582H1417.33C1417.33 59.9964 1417.28 59.7627 1417.17 59.5573C1417.07 59.3519 1416.92 59.1897 1416.73 59.0709C1416.54 58.9521 1416.32 58.8926 1416.06 58.8926C1415.77 58.8926 1415.53 58.9631 1415.32 59.1041C1415.12 59.2431 1414.96 59.4244 1414.85 59.6479C1414.74 59.8715 1414.68 60.1112 1414.68 60.367V60.7779C1414.68 61.1283 1414.74 61.4254 1414.86 61.6691C1414.99 61.9108 1415.16 62.0951 1415.37 62.222C1415.59 62.3469 1415.84 62.4093 1416.13 62.4093C1416.32 62.4093 1416.49 62.3831 1416.64 62.3308C1416.79 62.2764 1416.92 62.1958 1417.03 62.0891C1417.15 61.9803 1417.23 61.8454 1417.29 61.6842L1417.98 61.8776C1417.91 62.1112 1417.79 62.3167 1417.61 62.4939C1417.44 62.6691 1417.23 62.8061 1416.98 62.9048C1416.73 63.0015 1416.45 63.0498 1416.13 63.0498ZM1419.54 58.3126L1420.66 60.2099L1421.77 58.3126H1422.59L1421.09 60.6328L1422.59 62.9531H1421.77L1420.66 61.1525L1419.54 62.9531H1418.72L1420.2 60.6328L1418.72 58.3126H1419.54ZM1425.63 58.3126V58.9168H1423.22V58.3126H1425.63ZM1423.92 57.2008H1424.63V61.6238C1424.63 61.8252 1424.66 61.9763 1424.72 62.077C1424.78 62.1757 1424.86 62.2421 1424.95 62.2764C1425.05 62.3086 1425.15 62.3247 1425.25 62.3247C1425.33 62.3247 1425.39 62.3207 1425.44 62.3126C1425.49 62.3026 1425.53 62.2945 1425.56 62.2885L1425.71 62.929C1425.66 62.9471 1425.59 62.9652 1425.51 62.9833C1425.42 63.0035 1425.31 63.0135 1425.18 63.0135C1424.98 63.0135 1424.78 62.9702 1424.59 62.8836C1424.39 62.797 1424.24 62.6651 1424.11 62.4879C1423.98 62.3106 1423.92 62.087 1423.92 61.8172V57.2008Z" fill="#71717A"/>
<defs>
<clipPath id="clip0_156_12719">
<path d="M13.8193 34.7055C13.8193 33.9761 14.4106 33.3848 15.14 33.3848H162.861C163.59 33.3848 164.182 33.9761 164.182 34.7055C164.182 35.4349 163.59 36.0262 162.861 36.0262H15.14C14.4106 36.0262 13.8193 35.4349 13.8193 34.7055Z" fill="white"/>
</clipPath>
<clipPath id="clip1_156_12719">
<path d="M13.8193 63.9564C13.8193 63.227 14.4106 62.6357 15.14 62.6357H162.861C163.59 62.6357 164.182 63.227 164.182 63.9564C164.182 64.6858 163.59 65.2771 162.861 65.2771H15.14C14.4106 65.2771 13.8193 64.6858 13.8193 63.9564Z" fill="white"/>
</clipPath>
<clipPath id="clip2_156_12719">
<path d="M13.8193 93.2064C13.8193 92.477 14.4106 91.8857 15.14 91.8857H162.861C163.59 91.8857 164.182 92.477 164.182 93.2064C164.182 93.9358 163.59 94.5271 162.861 94.5271H15.14C14.4106 94.5271 13.8193 93.9358 13.8193 93.2064Z" fill="white"/>
</clipPath>
</defs>
</svg>
