<svg width="20" height="20" viewBox="0 0 20 20" fill="none" xmlns="http://www.w3.org/2000/svg">
<mask id="mask0_269_1082" style="mask-type:luminance" maskUnits="userSpaceOnUse" x="1" y="1" width="18" height="18">
<path fill-rule="evenodd" clip-rule="evenodd" d="M2.4998 6.25H17.4998L16.6665 17.5H3.33314L2.4998 6.25Z" fill="white"/>
<path d="M17.4998 5.25C17.7777 5.25 18.043 5.36575 18.2322 5.56934C18.4214 5.77308 18.5174 6.04693 18.4969 6.32422L17.6639 17.5742L17.6521 17.6699C17.5708 18.1447 17.1577 18.4998 16.6668 18.5H3.33281C2.8419 18.4998 2.42884 18.1447 2.34746 17.6699L2.33574 17.5742L1.50273 6.32422C1.48219 6.04693 1.57817 5.77308 1.76738 5.56934C1.95657 5.36575 2.22187 5.25 2.4998 5.25H17.4998ZM4.2625 16.5H15.7371L16.4227 7.25H3.57695L4.2625 16.5Z" fill="white"/>
<path d="M12.3335 7.91699V3.5H7.66647V7.91699C7.66629 8.46913 7.21864 8.91699 6.66647 8.91699C6.11429 8.91699 5.66664 8.46913 5.66647 7.91699V2.5C5.66647 1.94772 6.11418 1.5 6.66647 1.5H13.3335C13.8856 1.50018 14.3335 1.94782 14.3335 2.5V7.91699C14.3333 8.46902 13.8855 8.91682 13.3335 8.91699C12.7813 8.91699 12.3336 8.46913 12.3335 7.91699Z" fill="white"/>
<path d="M13.3335 13.1667C13.8856 13.1668 14.3335 13.6145 14.3335 14.1667C14.3335 14.7188 13.8856 15.1665 13.3335 15.1667H6.66647C6.11418 15.1667 5.66647 14.719 5.66647 14.1667C5.66647 13.6144 6.11418 13.1667 6.66647 13.1667H13.3335Z" fill="black"/>
</mask>
<g mask="url(#mask0_269_1082)">
<path d="M0 0H20V20H0V0Z" fill="white"/>
</g>
</svg>
