<svg width="1521" height="191" viewBox="0 0 1521 191" fill="none" xmlns="http://www.w3.org/2000/svg">
<path fill-rule="evenodd" clip-rule="evenodd" d="M1330.5 75.7951C1372.27 75.6157 1406.1 41.7862 1406.28 0.0128174C1406.46 41.7862 1440.29 75.6157 1482.06 75.7951C1440.29 75.9745 1406.46 109.804 1406.28 151.577C1406.1 109.804 1372.27 75.9745 1330.5 75.7951Z" fill="white"/>
<mask id="path-2-inside-1_66_216" fill="white">
<path fill-rule="evenodd" clip-rule="evenodd" d="M1442.33 151.078C1463.95 151.035 1481.47 133.538 1481.56 111.926C1481.65 133.538 1499.17 151.035 1520.79 151.078C1499.17 151.122 1481.65 168.619 1481.56 190.231C1481.47 168.619 1463.95 151.122 1442.33 151.078Z"/>
</mask>
<path d="M1481.56 111.926L1482.56 111.922L1480.56 111.922L1481.56 111.926ZM1442.33 151.078L1442.33 150.078L1442.33 152.078L1442.33 151.078ZM1520.79 151.078L1520.79 152.078V150.078L1520.79 151.078ZM1481.56 190.231L1480.56 190.235H1482.56L1481.56 190.231ZM1480.56 111.922C1480.48 132.984 1463.4 150.036 1442.33 150.078L1442.33 152.078C1464.5 152.034 1482.47 134.091 1482.56 111.93L1480.56 111.922ZM1520.79 150.078C1499.72 150.036 1482.64 132.984 1482.56 111.922L1480.56 111.93C1480.65 134.091 1498.62 152.034 1520.79 152.078L1520.79 150.078ZM1482.56 190.235C1482.64 169.173 1499.72 152.12 1520.79 152.078L1520.79 150.078C1498.62 150.123 1480.65 168.065 1480.56 190.227L1482.56 190.235ZM1442.33 152.078C1463.4 152.12 1480.48 169.173 1480.56 190.235L1482.56 190.227C1482.47 168.065 1464.5 150.123 1442.33 150.078L1442.33 152.078Z" fill="white" mask="url(#path-2-inside-1_66_216)"/>
<path fill-rule="evenodd" clip-rule="evenodd" d="M190.296 75.7951C148.523 75.6157 114.693 41.7862 114.514 0.0128479C114.334 41.7862 80.5046 75.6157 38.7312 75.7951C80.5046 75.9745 114.334 109.804 114.514 151.577C114.693 109.804 148.522 75.9745 190.296 75.7951Z" fill="white"/>
<mask id="path-5-inside-2_66_216" fill="white">
<path fill-rule="evenodd" clip-rule="evenodd" d="M78.4668 151.078C56.8453 151.035 39.3208 133.538 39.2342 111.926C39.1476 133.538 21.6231 151.035 0.00154877 151.078C21.6231 151.122 39.1476 168.619 39.2342 190.231C39.3207 168.619 56.8453 151.122 78.4668 151.078Z"/>
</mask>
<path d="M39.2342 111.926L38.2342 111.922L40.2342 111.922L39.2342 111.926ZM78.4668 151.078L78.4688 150.078L78.4688 152.078L78.4668 151.078ZM0.00154877 151.078L-0.000450134 152.078V150.078L0.00154877 151.078ZM39.2342 190.231L40.2342 190.235H38.2342L39.2342 190.231ZM40.2342 111.922C40.3185 132.984 57.3973 150.036 78.4688 150.078L78.4648 152.078C56.2932 152.034 38.323 134.091 38.2342 111.93L40.2342 111.922ZM-0.000450134 150.078C21.071 150.036 38.1498 132.984 38.2342 111.922L40.2342 111.93C40.1454 134.091 22.1751 152.034 0.00354767 152.078L-0.000450134 150.078ZM38.2342 190.235C38.1498 169.173 21.071 152.12 -0.000450134 152.078L0.00354767 150.078C22.1751 150.123 40.1454 168.065 40.2342 190.227L38.2342 190.235ZM78.4688 152.078C57.3973 152.12 40.3185 169.173 40.2342 190.235L38.2342 190.227C38.323 168.065 56.2932 150.123 78.4648 150.078L78.4688 152.078Z" fill="white" mask="url(#path-5-inside-2_66_216)"/>
</svg>
