<svg width="301" height="452" viewBox="0 0 301 452" fill="none" xmlns="http://www.w3.org/2000/svg">
<path d="M93.5729 310.807V302.032C93.5729 277.776 95.5705 258.442 99.5656 244.032C103.703 229.621 109.696 218.063 117.544 209.36C125.391 200.513 134.951 192.452 146.223 185.175C155.212 179.468 163.202 173.689 170.193 167.839C177.328 161.846 182.964 155.426 187.101 148.577C191.239 141.728 193.308 133.952 193.308 125.248C193.308 116.83 191.31 109.411 187.315 102.99C183.32 96.5691 177.827 91.6465 170.836 88.2222C163.987 84.6551 156.353 82.8715 147.935 82.8715C139.517 82.8715 131.598 84.7978 124.178 88.6502C116.902 92.5026 110.909 97.9959 106.2 105.13C101.634 112.121 99.2802 120.611 99.1375 130.599H0.686534C1.11458 100.636 8.03469 76.0941 21.4469 56.9747C35.0017 37.8552 52.9084 23.7296 75.1668 14.5979C97.4253 5.32356 121.967 0.686381 148.791 0.686381C178.184 0.686381 204.295 5.25222 227.124 14.3839C250.096 23.5156 268.145 36.9991 281.272 54.8344C294.399 72.6697 300.962 94.5002 300.962 120.326C300.962 137.305 298.108 152.287 292.401 165.271C286.694 178.255 278.704 189.741 268.43 199.729C258.3 209.574 246.386 218.563 232.688 226.696C221.987 232.974 213.07 239.537 205.935 246.386C198.944 253.235 193.665 261.082 190.098 269.928C186.531 278.632 184.747 289.333 184.747 302.032V310.807H93.5729ZM140.872 451.207C125.462 451.207 112.264 445.785 101.278 434.941C90.4339 424.097 85.0833 410.97 85.226 395.56C85.0833 380.436 90.4339 367.523 101.278 356.822C112.264 345.978 125.462 340.556 140.872 340.556C155.568 340.556 168.481 345.978 179.611 356.822C190.74 367.523 196.376 380.436 196.518 395.56C196.376 405.834 193.665 415.179 188.385 423.598C183.249 432.016 176.471 438.722 168.053 443.716C159.778 448.71 150.717 451.207 140.872 451.207Z" fill="white"/>
</svg>
